<?xml version="1.0" encoding="UTF-8" standalone="no"?>
<svg width="43px" height="43px" viewBox="0 0 43 43" version="1.1" xmlns="http://www.w3.org/2000/svg" xmlns:xlink="http://www.w3.org/1999/xlink">
    <!-- Generator: Sketch 39.1 (31720) - http://www.bohemiancoding.com/sketch -->
    <title>Fill 51 Copy</title>
    <desc>Created with Sketch.</desc>
    <defs></defs>
    <g id="Page-1" stroke="none" stroke-width="1" fill="none" fill-rule="evenodd">
        <path d="M25.161,24.747 L18.223,17.809 C24.986,10.383 36.207,4.359 40.437,2.553 C38.614,6.803 32.582,17.98 25.161,24.747 L25.161,24.747 Z M16.328,29.913 L13.083,26.669 C13.629,24.162 15.024,21.689 16.918,19.332 L23.64,26.054 C21.289,27.947 18.825,29.349 16.328,29.913 L16.328,29.913 Z M13.072,35.828 C11.305,37.598 5.827,40.417 2.081,40.922 C2.591,37.202 5.396,31.42 7.029,29.783 C7.85,28.964 9.02,28.493 10.239,28.493 C11.425,28.493 12.51,28.925 13.293,29.707 C14.891,31.308 14.79,34.11 13.072,35.828 L13.072,35.828 Z M43,1 C43,0.447 42.552,0 42,0 C39.282,0 13.738,12.921 11.077,26.551 C10.802,26.517 10.523,26.493 10.239,26.493 C8.494,26.493 6.808,27.177 5.615,28.369 C3.295,30.692 0,38.134 0,42 C0,42.553 0.448,43 1,43 C5.269,43 12.215,39.516 14.486,37.242 C15.957,35.772 16.599,33.799 16.41,31.931 C30.053,29.207 43,3.698 43,1 L43,1 Z" id="Fill-51-Copy" fill="#86428A"></path>
    </g>
</svg>