<?xml version="1.0" encoding="UTF-8" standalone="no"?>
<svg width="34px" height="58px" viewBox="0 0 34 58" version="1.1" xmlns="http://www.w3.org/2000/svg" xmlns:xlink="http://www.w3.org/1999/xlink">
    <!-- Generator: Sketch 39.1 (31720) - http://www.bohemiancoding.com/sketch -->
    <title>beer copy 6</title>
    <desc>Created with Sketch.</desc>
    <defs></defs>
    <g id="Page-1" stroke="none" stroke-width="1" fill="none" fill-rule="evenodd">
        <path d="M33.4333501,6.58895032 C33.0641586,6.21752484 32.5737437,6.01295896 32.0520819,6.01295896 L31.9961134,6.01295896 L31.9961134,5.95032397 C31.9961134,3.77450972 30.2228145,2.00431965 28.043179,2.00431965 C27.4780977,2.00431965 26.9282006,2.12583153 26.4187113,2.36008639 C25.5046423,1.48883369 24.30546,1.00215983 23.0235799,1.00215983 C22.3811967,1.00215983 21.7553782,1.12918359 21.1552851,1.38060043 C19.9556009,0.486298056 18.5028034,0 17.0000609,0 C15.4973184,0 14.0445209,0.486298056 12.8448367,1.38060043 C12.2447436,1.12918359 11.6187996,1.00215983 10.9765419,1.00215983 C9.69466177,1.00215983 8.49547953,1.48883369 7.58141053,2.36008639 C7.07192121,2.12583153 6.52202413,2.00431965 5.95694275,2.00431965 C3.77730731,2.00431965 2.00400842,3.77450972 2.00400842,5.95032397 L2.00400842,6.01308423 L1.94590656,6.01308423 C1.42499765,6.01308423 0.935084777,6.2172743 0.566646199,6.58807343 C0.197329191,6.95962419 -0.00395673469,7.4515594 5.89446315e-05,7.97318359 C0.0935489789,19.878216 1.84451065,26.1365788 3.53787243,32.1888726 C5.15920296,37.983486 6.83562358,43.9752743 7.00854877,55.1005011 C7.03339579,56.6991965 8.35367586,58 9.95179074,58 L24.048331,58 C25.6461949,58 26.9666005,56.6993218 26.9914475,55.1005011 C27.1643727,43.9750238 28.8407933,37.9832354 30.4621239,32.188622 C32.1554856,26.1364536 33.9064473,19.878216 33.9999374,7.97305832 C34.0040785,7.45206048 33.8027926,6.96050108 33.4333501,6.58895032 L33.4333501,6.58895032 L33.4333501,6.58895032 Z M1.902738,7.91155076 C1.91553798,7.89852268 1.93009482,7.89213391 1.94603205,7.89213391 L3.95311877,7.89200864 C4.53903148,7.89200864 5.01576791,8.36941253 5.01576791,8.95680346 C5.01576791,10.5800518 6.33868327,11.9006479 7.96478241,11.9006479 C9.59088156,11.9006479 10.9137969,10.5800518 10.9137969,8.95617711 C10.9137969,8.36928726 11.3882745,7.89200864 11.9715519,7.89200864 L13.9826544,7.89200864 C14.5739631,7.89200864 15.0549662,8.37091577 15.0549662,8.9595594 L15.0549662,15.3117495 C14.7647079,15.4054514 14.5156103,15.5108035 14.2850852,15.6092657 C13.7291646,15.8467775 13.2900752,16.0345572 12.3108769,16.0345572 C11.3316785,16.0345572 10.8925891,15.8469028 10.3369195,15.6092657 C9.7043245,15.338933 8.98714927,15.0323974 7.6218183,15.0323974 C6.25724027,15.0323974 5.540567,15.338933 4.908223,15.6093909 C4.35292984,15.8469028 3.91434237,16.0345572 2.935897,16.0345572 C2.6816543,16.0345572 2.45426646,16.0207775 2.24369428,15.994095 C2.03538091,13.636013 1.90625172,10.9940691 1.88240863,7.958527 C1.88228314,7.94111447 1.88918509,7.92533045 1.902738,7.91155076 L1.902738,7.91155076 L1.902738,7.91155076 Z M28.6491701,31.6831577 C26.9957142,37.5926436 25.2859132,43.7033132 25.1093488,55.0711879 C25.1003135,55.6500605 24.62433,56.1209503 24.048331,56.1209503 L9.95179074,56.1209503 C9.37566625,56.1209503 8.89968276,55.6500605 8.89077297,55.0713132 C8.71408308,43.7034384 7.00440761,37.5927689 5.35095164,31.6832829 C4.19242816,27.5423585 3.07682225,23.5541382 2.43531747,17.8975724 C2.59619563,17.9074687 2.76159142,17.9136069 2.935897,17.9136069 C4.30060052,17.9136069 5.01727379,17.6070713 5.64961779,17.3366134 C6.20491095,17.0991015 6.64349843,16.9114471 7.6218183,16.9114471 C8.6011421,16.9114471 9.04010604,17.0991015 9.59590116,17.3367387 C10.2284961,17.6071965 10.9456714,17.9136069 12.3108769,17.9136069 C13.6762078,17.9136069 14.3933831,17.6070713 15.0261035,17.3367387 C15.0358917,17.3326048 15.0453035,17.3285961 15.0549662,17.3244622 L15.0549662,27.9978402 C15.0549662,29.6210886 16.3778816,30.9416847 18.0039807,30.9416847 C19.6300799,30.9416847 20.9529952,29.6210886 20.9529952,27.9978402 L20.9529952,25.9935205 C20.9529952,25.474527 20.5317254,25.0539957 20.0118204,25.0539957 C19.4919154,25.0539957 19.0706455,25.474527 19.0706455,25.9935205 L19.0706455,27.9978402 C19.0706455,28.5849806 18.5921523,29.062635 18.0039807,29.062635 C17.4158092,29.062635 16.9373159,28.5849806 16.9373159,27.9978402 L16.9373159,8.9595594 C16.9373159,7.33480778 15.6118907,6.01295896 13.9826544,6.01295896 L11.9715519,6.01295896 C10.3503469,6.01295896 9.03144723,7.33330454 9.03144723,8.95680346 C9.03144723,9.54394384 8.55295394,10.0215983 7.96478241,10.0215983 C7.37661088,10.0215983 6.89811759,9.54394384 6.89811759,8.95617711 C6.89811759,7.33330454 5.57708459,6.01295896 3.95311877,6.01295896 L3.8863581,6.01295896 L3.8863581,5.95032397 C3.8863581,4.81061771 4.81523492,3.88336933 5.95694275,3.88336933 C6.40042434,3.88336933 6.83010202,4.0311879 7.19929354,4.31066523 C7.39919908,4.46199136 7.65093198,4.52700648 7.89952762,4.49243197 C8.14787229,4.45748164 8.3719974,4.324946 8.52195792,4.12438877 C9.11339219,3.33431102 10.0080102,2.8812095 10.9765419,2.8812095 C11.500839,2.8812095 12.0138421,3.02376674 12.5012452,3.30462203 C12.8547504,3.50843629 13.2991104,3.46158531 13.6021687,3.18862203 C14.5402063,2.34417711 15.7470435,1.87904968 17.0000609,1.87904968 C18.2530783,1.87904968 19.4599155,2.34417711 20.3977021,3.18862203 C20.7008859,3.46158531 21.1451204,3.50843629 21.4986257,3.30462203 C21.9861542,3.02376674 22.4992827,2.8812095 23.0234544,2.8812095 C23.991986,2.8812095 24.8866041,3.33431102 25.4780384,4.12451404 C25.6279989,4.32507127 25.852124,4.45748164 26.1004687,4.49255724 C26.3493153,4.52725702 26.6007972,4.46211663 26.8007028,4.3107905 C27.1698943,4.03131317 27.599572,3.8834946 28.0430535,3.8834946 C29.1847614,3.8834946 30.1136382,4.81074298 30.1136382,5.95044924 L30.1136382,6.01295896 L30.053905,6.01295896 C28.4262999,6.01295896 27.1020042,7.33355508 27.1020042,8.95680346 L27.1020042,10.9611231 C27.1020042,11.4801166 27.5232741,11.9006479 28.043179,11.9006479 C28.563084,11.9006479 28.9843539,11.4801166 28.9843539,10.9611231 L28.9843539,8.95680346 C28.9843539,8.36966307 29.4642276,7.89200864 30.0540305,7.89200864 L32.0520819,7.89200864 C32.0685211,7.89200864 32.0837054,7.89889849 32.0971328,7.91255292 C32.1108112,7.92620734 32.1177132,7.94174082 32.1175877,7.95840173 C32.0937446,10.9929417 31.9647409,13.6340086 31.756553,15.9915896 C31.5404593,16.0199006 31.3069224,16.0345572 31.0455268,16.0345572 C30.0682108,16.0345572 29.6301253,15.8470281 29.0754596,15.6093909 C29.0454675,15.5964881 29.0147225,15.5835853 28.9842284,15.5705572 L28.9842284,14.9697624 C28.9842284,14.4507689 28.5629585,14.0302376 28.0430535,14.0302376 C27.5231486,14.0302376 27.1018787,14.4507689 27.1018787,14.9697624 L27.1018787,16.1306393 C27.0968591,16.1872613 27.0966081,16.2436328 27.1018787,16.2991274 L27.1018787,16.9740821 C27.1018787,17.5612225 26.6233854,18.0388769 26.0352139,18.0388769 C25.4470424,18.0388769 24.9685491,17.5612225 24.9685491,16.9740821 L24.9685491,8.95680346 C24.9685491,7.33355508 23.6455082,6.01295896 22.0192836,6.01295896 C21.2319595,6.01295896 20.4918196,6.31774082 19.935397,6.87105832 C19.3774685,7.42575378 19.0701436,8.16447084 19.0702691,8.95104104 L19.0703946,16.711892 C19.0701436,16.7209114 19.0703946,16.7299309 19.0703946,16.7389503 L19.0706455,21.9846307 C19.0706455,22.5036242 19.4920409,22.9241555 20.0118204,22.9241555 C20.5317254,22.9241555 20.9529952,22.5034989 20.9529952,21.9846307 L20.9528697,17.8799093 C21.1845242,17.9019568 21.425967,17.9136069 21.6824685,17.9136069 C22.3022635,17.9136069 22.7874077,17.8499698 23.1924894,17.7553909 C23.5364574,19.0005745 24.6802986,19.9179266 26.0353394,19.9179266 C27.455635,19.9179266 28.644527,18.9103801 28.9227383,17.5737495 C29.4391296,17.7596501 30.0795049,17.9136069 31.0456523,17.9136069 C31.2267343,17.9136069 31.3982791,17.9070929 31.5650553,17.8964449 C30.923425,23.5535119 29.8078191,27.5419827 28.6491701,31.6831577 L28.6491701,31.6831577 L28.6491701,31.6831577 Z M21.6824685,16.0345572 C21.3910807,16.0345572 21.1534027,16.0162678 20.9528697,15.9892095 L20.9527442,8.95091577 C20.9527442,8.66755508 21.0631754,8.40173218 21.2638339,8.20230238 C21.4651198,8.00224622 21.7335429,7.89200864 22.01966,7.89200864 C22.6078316,7.89200864 23.0863249,8.36966307 23.0863249,8.95680346 L23.0863249,15.8336242 C22.7261686,15.9547603 22.3187027,16.0345572 21.6824685,16.0345572 L21.6824685,16.0345572 Z M22.01966,52.112311 L11.9804617,52.112311 C11.4605568,52.112311 11.0392869,52.5328423 11.0392869,53.0518359 C11.0392869,53.5708294 11.4605568,53.9913607 11.9804617,53.9913607 L22.01966,53.9913607 C22.539565,53.9913607 22.9608349,53.5708294 22.9608349,53.0518359 C22.9608349,52.5328423 22.539565,52.112311 22.01966,52.112311 L22.01966,52.112311 Z" id="beer-copy-6" fill="#FFFFFF"></path>
    </g>
</svg>
