<?xml version="1.0" encoding="UTF-8" standalone="no"?>
<svg width="25px" height="24px" viewBox="0 0 25 24" version="1.1" xmlns="http://www.w3.org/2000/svg" xmlns:xlink="http://www.w3.org/1999/xlink" xmlns:sketch="http://www.bohemiancoding.com/sketch/ns">
    <!-- Generator: Sketch 3.3.3 (12081) - http://www.bohemiancoding.com/sketch -->
    <title>Coffee cup 2</title>
    <desc>Created with Sketch.</desc>
    <defs></defs>
    <g id="Page-1" stroke="none" stroke-width="1" fill="none" fill-rule="evenodd" sketch:type="MSPage">
        <g id="Icons" sketch:type="MSLayerGroup" transform="translate(-4.000000, -643.000000)" stroke="#406661" fill="#406661">
            <path d="M24.524,654.898 L24.524,652.562 C24.524,652.251 24.272,652 23.962,652 L5.062,652 C4.753,652 4.5,652.252 4.5,652.562 L4.5,658.228 C4.5,661.4 5.979,664.322 8.555,666.242 C8.653,666.314 8.772,666.353 8.891,666.353 L20.129,666.353 C20.248,666.353 20.367,666.314 20.465,666.242 C21.508,665.465 22.354,664.484 23.035,663.363 C23.332,663.433 23.631,663.517 23.912,663.521 L23.963,663.521 C26.326,663.521 28.275,661.593 28.305,659.224 C28.329,657.021 26.69,655.195 24.524,654.898 L24.524,654.898 Z M23.399,655.4 L23.399,658.228 C23.399,658.603 23.374,658.972 23.327,659.335 C23.188,660.429 22.841,661.481 22.286,662.478 C21.686,663.558 20.897,664.484 19.938,665.226 L9.083,665.226 C6.882,663.521 5.624,660.98 5.624,658.228 L5.624,653.124 L23.399,653.124 L23.399,655.4 L23.399,655.4 Z M23.962,662.394 L23.925,662.394 C23.82,662.394 23.712,662.386 23.603,662.371 C23.63,662.32 23.636,662.264 23.658,662.213 C23.912,661.645 24.115,661.065 24.254,660.465 C24.281,660.363 24.293,660.258 24.316,660.153 C24.443,659.524 24.525,658.883 24.525,658.229 L24.525,656.008 C26.046,656.278 27.195,657.619 27.179,659.215 C27.157,660.967 25.714,662.394 23.962,662.394 Z M14.511,650.457 C14.82,650.457 15.073,650.205 15.073,649.895 L15.073,644.114 C15.073,643.803 14.819,643.552 14.511,643.552 C14.199,643.552 13.947,643.804 13.947,644.114 L13.947,649.895 C13.946,650.205 14.198,650.457 14.511,650.457 Z M19.239,650.457 C19.55,650.457 19.801,650.205 19.801,649.895 L19.801,645.446 C19.801,645.135 19.549,644.884 19.239,644.884 C18.929,644.884 18.677,645.136 18.677,645.446 L18.677,649.895 C18.677,650.205 18.929,650.457 19.239,650.457 Z M9.784,650.457 C10.093,650.457 10.346,650.205 10.346,649.895 L10.346,645.446 C10.346,645.135 10.092,644.884 9.784,644.884 C9.473,644.884 9.222,645.136 9.222,645.446 L9.222,649.895 C9.222,650.205 9.474,650.457 9.784,650.457 Z" id="Coffee-cup-2" sketch:type="MSShapeGroup"></path>
        </g>
    </g>
</svg>