<?xml version="1.0" encoding="UTF-8" standalone="no"?>
<svg width="73px" height="73px" viewBox="0 0 73 73" version="1.1" xmlns="http://www.w3.org/2000/svg" xmlns:xlink="http://www.w3.org/1999/xlink" xmlns:sketch="http://www.bohemiancoding.com/sketch/ns">
    <!-- Generator: Sketch 3.3.3 (12081) - http://www.bohemiancoding.com/sketch -->
    <title>Check Icon</title>
    <desc>Created with Sketch.</desc>
    <defs></defs>
    <g id="Page-1" stroke="none" stroke-width="1" fill="none" fill-rule="evenodd" sketch:type="MSPage">
        <path d="M36.0576923,73 C55.9718069,73 72.1153846,56.8564223 72.1153846,36.9423077 C72.1153846,17.0281931 55.9718069,0.884615385 36.0576923,0.884615385 C16.1435777,0.884615385 0,17.0281931 0,36.9423077 C0,56.8564223 16.1435777,73 36.0576923,73 Z M36.0576923,66.4440559 C52.3510588,66.4440559 65.5594406,53.2356742 65.5594406,36.9423077 C65.5594406,20.6489412 52.3510588,7.44055944 36.0576923,7.44055944 C19.7643258,7.44055944 6.55594406,20.6489412 6.55594406,36.9423077 C6.55594406,53.2356742 19.7643258,66.4440559 36.0576923,66.4440559 Z M20.9887407,32.7986922 L29.7305731,41.2586733 L51.1266439,20.5524476 L57.3645105,26.5891948 L29.7305731,53.3321678 L14.7508741,38.8354395 L20.9887407,32.7986922 Z" id="Check-Icon" fill="#B9E937" sketch:type="MSShapeGroup"></path>
    </g>
</svg>