<?xml version="1.0" encoding="UTF-8" standalone="no"?>
<svg width="30px" height="58px" viewBox="0 0 30 58" version="1.1" xmlns="http://www.w3.org/2000/svg" xmlns:xlink="http://www.w3.org/1999/xlink">
    <!-- Generator: Sketch 39.1 (31720) - http://www.bohemiancoding.com/sketch -->
    <title>ice-cream copy</title>
    <desc>Created with Sketch.</desc>
    <defs></defs>
    <g id="Page-1" stroke="none" stroke-width="1" fill="none" fill-rule="evenodd">
        <path d="M30,16.9741187 C30,12.8790343 26.882887,9.49786501 22.8923849,9.06693535 C22.9439749,8.69951771 22.9707113,8.32784088 22.9707113,7.95466081 C22.9707113,3.56844831 19.3950628,0 15,0 C10.6049372,0 7.0292887,3.56844831 7.0292887,7.95466081 C7.0292887,8.32784088 7.0560251,8.69951771 7.10761506,9.06693535 C3.11711297,9.49786501 0,12.8790343 0,16.9741187 C0,19.4310441 1.14288703,21.7320081 3.04556485,23.2274843 C3.04983264,23.2437694 3.05297071,23.2601798 3.05824268,23.2762144 L14.1042678,57.3497221 C14.2299163,57.7374336 14.5916736,58 15,58 C15.4083264,58 15.7700837,57.7373083 15.8957322,57.3497221 L26.9417573,23.2762144 C26.9467782,23.2609314 26.9496653,23.2452727 26.9538075,23.2297392 C28.8743096,21.7269973 30,19.4419426 30,16.9741187 L30,16.9741187 L30,16.9741187 L30,16.9741187 Z M28.1171548,16.9741187 C28.1171548,19.0293024 27.0933891,20.9173756 25.3759833,22.0475638 L25.0611715,22.0475638 L25.0564017,22.0475638 L18.6830962,22.0475638 C16.9651883,20.9175009 15.9414226,19.0308057 15.9414226,16.9741187 C15.9414226,13.6240165 18.6724268,10.8985117 22.0292887,10.8985117 C25.3861506,10.8985117 28.1171548,13.6240165 28.1171548,16.9741187 L28.1171548,16.9741187 L28.1171548,16.9741187 L28.1171548,16.9741187 Z M15.8851883,22.0475638 L14.1148117,22.0475638 C14.454477,21.6391828 14.7503347,21.1988579 15,20.7336042 C15.2497908,21.1987326 15.545523,21.6391828 15.8851883,22.0475638 L15.8851883,22.0475638 L15.8851883,22.0475638 L15.8851883,22.0475638 Z M15,1.87905373 C18.3568619,1.87905373 21.0878661,4.60455854 21.0878661,7.95466081 C21.0878661,8.33761196 21.0503347,8.7176819 20.9797908,9.09061143 C18.3889958,9.43247394 16.1868201,11.0190216 15,13.228413 C13.8130544,11.0190216 11.6108787,9.43234867 9.02008368,9.09048616 C8.94953975,8.7176819 8.91213389,8.33748669 8.91213389,7.95453554 C8.91213389,4.60455854 11.6431381,1.87905373 15,1.87905373 L15,1.87905373 L15,1.87905373 L15,1.87905373 Z M1.88284519,16.9741187 C1.88284519,13.6240165 4.61384937,10.8985117 7.9707113,10.8985117 C11.3275732,10.8985117 14.0585774,13.6240165 14.0585774,16.9741187 C14.0585774,19.0306804 13.0349372,20.9173756 11.3171548,22.0475638 L4.62112971,22.0475638 C2.92217573,20.9277731 1.88284519,19.0215357 1.88284519,16.9741187 L1.88284519,16.9741187 L1.88284519,16.9741187 L1.88284519,16.9741187 Z M20.1533473,23.9266176 L19.67159,24.1189074 C19.1888285,24.3116983 18.9539749,24.8583777 19.1470293,25.340167 C19.2942678,25.7075847 19.6477406,25.9310668 20.0214226,25.9310668 C20.1379079,25.9310668 20.2561506,25.9093951 20.3707531,25.8636714 L24.681841,24.1427087 L22.8232218,29.8759522 L20.6750209,30.7334271 C20.1922594,30.9260927 19.9574059,31.4728973 20.1504603,31.9546867 C20.2976987,32.3221044 20.6511715,32.5455865 21.0248536,32.5455865 C21.1412134,32.5455865 21.2595816,32.5239147 21.3741841,32.4781911 L22.0695816,32.2005922 L20.2109623,37.9338357 L16.5958996,39.376949 C16.1131381,39.5696146 15.8782845,40.1164193 16.0713389,40.5982086 C16.2185774,40.9656263 16.5720502,41.1891084 16.9457322,41.1891084 C17.0620921,41.1891084 17.1804603,41.1674366 17.2950628,41.121713 L19.4573222,40.258601 L17.5987029,45.9918445 L12.9966527,47.8290579 L11.5629289,43.4065171 L13.8431799,42.4961782 C14.3259414,42.3033873 14.560795,41.7567079 14.3677406,41.2749185 C14.1745607,40.7930039 13.6262762,40.5588738 13.1440167,40.7514141 L10.9820084,41.6145262 L9.55029289,37.1982488 L12.3365272,36.0860995 C12.8192887,35.8934339 13.0541423,35.3466293 12.8610879,34.8648399 C12.6680335,34.3830505 12.12,34.1485446 11.637364,34.3413355 L8.96937238,35.4062579 L7.53665272,30.9868488 L11.1756904,29.534215 C11.6584519,29.3415493 11.8933054,28.7947447 11.700251,28.3129553 C11.5070711,27.8311659 10.9592887,27.59666 10.4765272,27.7894509 L6.95573222,29.1948579 L5.24811715,23.9266176 L20.1533473,23.9266176 L20.1533473,23.9266176 L20.1533473,23.9266176 L20.1533473,23.9266176 Z M15,54.0083888 L13.5776987,49.6209236 L16.8451883,48.3164845 L15,54.0083888 L15,54.0083888 L15,54.0083888 L15,54.0083888 Z M7.9707113,14.9071596 C9.11271967,14.9071596 10.041841,15.83441 10.041841,16.9741187 C10.041841,17.4931134 10.4632218,17.9136456 10.9832636,17.9136456 C11.5033054,17.9136456 11.9246862,17.4931134 11.9246862,16.9741187 C11.9246862,14.7982998 10.1509205,13.0281059 7.9707113,13.0281059 C7.45066946,13.0281059 7.0292887,13.4486381 7.0292887,13.9676328 C7.0292887,14.4866274 7.45066946,14.9071596 7.9707113,14.9071596 L7.9707113,14.9071596 L7.9707113,14.9071596 Z M15,5.8877017 C16.1420084,5.8877017 17.0711297,6.81495208 17.0711297,7.95466081 C17.0711297,8.47365545 17.4925105,8.89418768 18.0125523,8.89418768 C18.5325941,8.89418768 18.9539749,8.47365545 18.9539749,7.95466081 C18.9539749,5.77884185 17.1802092,4.00864797 15,4.00864797 C14.4799582,4.00864797 14.0585774,4.42918019 14.0585774,4.94817483 C14.0585774,5.46716948 14.4799582,5.8877017 15,5.8877017 L15,5.8877017 L15,5.8877017 Z M21.0878661,13.9676328 C21.0878661,14.4866274 21.5092469,14.9071596 22.0292887,14.9071596 C23.1712971,14.9071596 24.1004184,15.83441 24.1004184,16.9741187 C24.1004184,17.4931134 24.5217992,17.9136456 25.041841,17.9136456 C25.5618828,17.9136456 25.9832636,17.4931134 25.9832636,16.9741187 C25.9832636,14.7982998 24.2094979,13.0281059 22.0292887,13.0281059 C21.5092469,13.0281059 21.0878661,13.4486381 21.0878661,13.9676328 L21.0878661,13.9676328 L21.0878661,13.9676328 Z M14.2941841,28.2173741 C14.4106695,28.2173741 14.5289121,28.1957024 14.6435146,28.1499787 L16.7303347,27.3169316 C17.2132218,27.1241407 17.4479498,26.5774613 17.2548954,26.0956719 C17.0617155,25.6137573 16.5135565,25.3797524 16.0311715,25.5721675 L13.9443515,26.4052147 C13.4614644,26.5980056 13.2267364,27.144685 13.4197908,27.6264744 C13.5671548,27.993892 13.9205021,28.2173741 14.2941841,28.2173741 L14.2941841,28.2173741 L14.2941841,28.2173741 Z M15.0267364,32.9882916 C14.5439749,33.1809572 14.3091213,33.7277618 14.5021757,34.2095512 C14.6494142,34.5769688 15.002887,34.800451 15.376569,34.800451 C15.4929289,34.800451 15.6112971,34.7787792 15.7258996,34.7330556 L17.8601674,33.8810926 C18.3429289,33.688427 18.5777824,33.1416223 18.384728,32.659833 C18.1916736,32.1780436 17.6436402,31.9435377 17.1610042,32.1363286 L15.0267364,32.9882916 L15.0267364,32.9882916 L15.0267364,32.9882916 L15.0267364,32.9882916 Z" id="ice-cream-copy" fill="#FFFFFF"></path>
    </g>
</svg>
