<?xml version="1.0" encoding="UTF-8" standalone="no"?>
<svg width="58px" height="58px" viewBox="0 0 58 58" version="1.1" xmlns="http://www.w3.org/2000/svg" xmlns:xlink="http://www.w3.org/1999/xlink">
    <!-- Generator: Sketch 39.1 (31720) - http://www.bohemiancoding.com/sketch -->
    <title>dinner copy</title>
    <desc>Created with Sketch.</desc>
    <defs></defs>
    <g id="Page-1" stroke="none" stroke-width="1" fill="none" fill-rule="evenodd">
        <path d="M49.5060691,8.49393089 C44.0287646,3.01650108 36.7461944,0 29,0 C21.2538056,0 13.9712354,3.01650108 8.49393089,8.49393089 C3.01662635,13.9713607 0,21.2538056 0,29 C0,36.7461944 3.01650108,44.0287646 8.49393089,49.5060691 C13.9713607,54.9833737 21.2538056,58 29,58 C36.7461944,58 44.0287646,54.9834989 49.5060691,49.5060691 C54.9833737,44.0286393 58,36.7461944 58,29 C58,21.2538056 54.9834989,13.9712354 49.5060691,8.49393089 L49.5060691,8.49393089 L49.5060691,8.49393089 Z M48.1774557,48.1774557 C43.0549158,53.2998704 36.2442376,56.1209503 29,56.1209503 C21.7557624,56.1209503 14.9450842,53.2998704 9.82254428,48.1774557 C4.70012959,43.0549158 1.87904968,36.2442376 1.87904968,29 C1.87904968,21.7557624 4.70012959,14.9450842 9.82254428,9.82254428 C14.9450842,4.70012959 21.7557624,1.87904968 29,1.87904968 C36.2442376,1.87904968 43.0549158,4.70012959 48.1774557,9.82254428 C53.2998704,14.9450842 56.1209503,21.7557624 56.1209503,29 C56.1209503,36.2442376 53.2998704,43.0549158 48.1774557,48.1774557 L48.1774557,48.1774557 Z M44.1410065,21.1256544 C43.6683629,21.3396156 43.4586609,21.8961901 43.672622,22.368959 C44.6179093,24.4570842 45.0971922,26.6881425 45.0971922,29 C45.0971922,34.8112743 41.9443974,40.1529114 36.9546436,42.9949114 L36.9546436,8.95680346 C36.9546436,8.58362419 36.7337927,8.24577106 36.3919309,8.0961987 C36.0500691,7.94650108 35.6520864,8.01326998 35.3778704,8.2664406 C34.4497451,9.12316199 33.6577883,10.2175205 32.9809546,11.468216 C31.6812786,11.1745832 30.3436458,11.0237581 29,11.0237581 C28.6424795,11.0237581 28.2875896,11.0355335 27.9352052,11.056203 L27.9352052,8.95680346 C27.9352052,8.43780994 27.5145486,8.01727862 26.9956803,8.01727862 C26.4768121,8.01727862 26.0561555,8.43780994 26.0561555,8.95680346 L26.0561555,11.2661555 C25.3308423,11.3861641 24.6200605,11.5495162 23.9265659,11.7539568 L23.9265659,8.95680346 C23.9265659,8.43780994 23.5059093,8.01727862 22.987041,8.01727862 C22.4681728,8.01727862 22.0475162,8.43780994 22.0475162,8.95680346 L22.0475162,12.423149 C21.3114298,12.733067 20.6005227,13.0912138 19.9179266,13.4925788 L19.9179266,8.95680346 C19.9179266,8.43780994 19.49727,8.01727862 18.9784017,8.01727862 C18.4595335,8.01727862 18.0388769,8.43780994 18.0388769,8.95680346 L18.0388769,14.7626911 C13.7754384,18.0526566 11.0237581,23.2106479 11.0237581,29 C11.0237581,33.7901987 12.8860216,38.2969114 16.2674341,41.6897235 C16.4509546,41.8738704 16.6919741,41.9659438 16.9328683,41.9659438 C17.1727603,41.9659438 17.4127775,41.874622 17.5960475,41.6918531 C17.9635896,41.3254384 17.9645918,40.7306566 17.5983024,40.3631145 C14.5704017,37.325067 12.9028078,33.2894946 12.9028078,29 C12.9028078,24.3548639 14.8813218,20.1638315 18.0388769,17.2229935 L18.0388769,20.9827214 C18.0388769,22.2776371 18.8791879,23.3798877 20.0431965,23.7728596 L20.0431965,47.0388769 C20.0431965,48.6621253 21.3637927,49.9827214 22.987041,49.9827214 C24.6102894,49.9827214 25.9308855,48.6621253 25.9308855,47.0388769 L25.9308855,46.7135508 C26.9409374,46.8871749 27.9687775,46.9762419 29,46.9762419 C29.6907387,46.9762419 30.3823542,46.9360302 31.0669546,46.8577365 L31.0669546,47.0388769 C31.0669546,48.6621253 32.3875508,49.9827214 34.0107991,49.9827214 C35.6340475,49.9827214 36.9546436,48.6621253 36.9546436,47.0388769 L36.9546436,45.1237495 C43.062432,42.1058704 46.9762419,35.8436242 46.9762419,29 C46.9762419,26.4189374 46.4407127,23.9273175 45.384311,21.5940389 C45.1703499,21.1211447 44.6137754,20.9113175 44.1410065,21.1256544 L44.1410065,21.1256544 L44.1410065,21.1256544 Z M26.0561555,13.1735162 L26.0561555,18.0388769 L23.9265659,18.0388769 L23.9265659,13.7226998 C24.617054,13.4928294 25.3280864,13.3086825 26.0561555,13.1735162 L26.0561555,13.1735162 Z M22.0475162,14.4832138 L22.0475162,18.0388769 L19.9179266,18.0388769 L19.9179266,15.7168726 C20.5928812,15.254 21.3041641,14.8406091 22.0475162,14.4832138 L22.0475162,14.4832138 Z M24.0518359,47.0388769 C24.0518359,47.6260173 23.5741814,48.1036717 22.987041,48.1036717 C22.3999006,48.1036717 21.9222462,47.6260173 21.9222462,47.0388769 L21.9222462,22.987041 C21.9222462,22.4680475 21.5015896,22.0475162 20.9827214,22.0475162 C20.395581,22.0475162 19.9179266,21.5698618 19.9179266,20.9827214 L19.9179266,19.9179266 L22.9846609,19.9179266 C22.9855378,19.9179266 22.9862894,19.9180518 22.987041,19.9180518 C22.9877927,19.9180518 22.9886695,19.9179266 22.9894212,19.9179266 L26.0561555,19.9179266 L26.0561555,20.9827214 C26.0561555,21.5698618 25.5785011,22.0475162 24.9913607,22.0475162 C24.4724924,22.0475162 24.0518359,22.4680475 24.0518359,22.987041 L24.0518359,47.0388769 L24.0518359,47.0388769 Z M29,45.0971922 C27.9666479,45.0971922 26.9376803,44.9973521 25.9308855,44.8033089 L25.9308855,23.7729849 C27.0948942,23.3798877 27.9352052,22.2776371 27.9352052,20.9828467 L27.9352052,12.9390108 C28.2873391,12.9159611 28.6421037,12.902933 29,12.902933 C30.0610367,12.902933 31.1173132,13.0080346 32.1496631,13.2124752 C28.7777711,21.2257451 29.0462246,33.3983542 29.0630108,34.0356026 C29.0764147,34.5445745 29.4929374,34.9504492 30.0022851,34.9504492 L31.0670799,34.9504492 L31.0670799,44.9651577 C30.3837322,45.0524708 29.6914903,45.0971922 29,45.0971922 L29,45.0971922 Z M35.075594,47.0388769 C35.075594,47.6260173 34.5979395,48.1036717 34.0107991,48.1036717 C33.4236587,48.1036717 32.9460043,47.6260173 32.9460043,47.0388769 L32.9460043,34.0107991 C32.9460043,33.4918056 32.5253477,33.0712743 32.0064795,33.0712743 L30.9332916,33.0712743 C30.9339179,31.4417624 31.0010626,27.8328596 31.4981339,23.8552873 C32.1749676,18.4403672 33.3974773,14.2715076 35.075594,11.5959914 L35.075594,47.0388769 L35.075594,47.0388769 Z M39.414946,16.725797 C40.0820086,17.2921425 40.7074816,17.9177408 41.2740778,18.5849287 C41.4599784,18.8036501 41.7244233,18.9162678 41.990622,18.9162678 C42.2055853,18.9162678 42.421676,18.8428596 42.598432,18.6929114 C42.9939093,18.3569374 43.0421382,17.7640346 42.7062894,17.3685572 C42.0739266,16.6240778 41.3756717,15.9258229 40.6313175,15.2937106 C40.2358402,14.957987 39.6428121,15.006216 39.3070886,15.401568 C38.9711145,15.7969201 39.0194687,16.3898229 39.414946,16.725797 L39.414946,16.725797 L39.414946,16.725797 Z M17.8002376,49.2224579 C14.1317063,47.1861944 11.0816328,44.1896112 8.97972786,40.5566566 C8.71991793,40.1075637 8.14492873,39.9543585 7.69596112,40.2139179 C7.24686825,40.4737279 7.09341253,41.0485918 7.35322246,41.4976847 C9.62524406,45.4248985 12.9224752,48.6641296 16.8882721,50.8653737 C17.0327084,50.9455464 17.1890454,50.9835032 17.343378,50.9835032 C17.6737149,50.9835032 17.9940302,50.8090022 18.1656501,50.4998359 C18.417568,50.0462333 18.2539654,49.4742505 17.8002376,49.2224579 L17.8002376,49.2224579 L17.8002376,49.2224579 Z M40.5565313,8.97985313 C41.2153261,9.36104968 41.8627214,9.77957667 42.4804276,10.2240346 C42.6464104,10.3434168 42.8381987,10.4009158 43.0282333,10.4009158 C43.3203629,10.4009158 43.608108,10.2651231 43.7917538,10.0099482 C44.0947819,9.58866523 43.9989503,9.00152484 43.5776674,8.69849676 C42.9097279,8.21808639 42.2099698,7.76561123 41.4975594,7.35334773 C41.0485918,7.09391361 40.4737279,7.24686825 40.2137927,7.69608639 C39.9539827,8.14517927 40.1073132,8.71979266 40.5565313,8.97985313 L40.5565313,8.97985313 L40.5565313,8.97985313 Z M53.4481901,23.7942808 C52.4504147,19.0857581 50.1171361,14.7852397 46.7007732,11.3577279 C46.3344838,10.990311 45.7395767,10.9893089 45.3721598,11.3555983 C45.0046177,11.7218877 45.0036156,12.3167948 45.369905,12.6842117 C48.5297149,15.854419 50.6874903,19.8308639 51.6099784,24.1837451 C51.7036803,24.6256976 52.0937711,24.9287257 52.5282073,24.9287257 C52.5927214,24.9287257 52.6582376,24.9219611 52.723879,24.9080562 C53.231473,24.8006998 53.555797,24.3018747 53.4481901,23.7942808 L53.4481901,23.7942808 L53.4481901,23.7942808 Z" id="dinner-copy" fill="#FFFFFF"></path>
    </g>
</svg>
