<?xml version="1.0" encoding="UTF-8" standalone="no"?>
<svg width="27px" height="20px" viewBox="0 0 27 20" version="1.1" xmlns="http://www.w3.org/2000/svg" xmlns:xlink="http://www.w3.org/1999/xlink" xmlns:sketch="http://www.bohemiancoding.com/sketch/ns">
    <!-- Generator: Sketch 3.3.3 (12081) - http://www.bohemiancoding.com/sketch -->
    <title>Platter 2</title>
    <desc>Created with Sketch.</desc>
    <defs></defs>
    <g id="Page-1" stroke="none" stroke-width="1" fill="none" fill-rule="evenodd" sketch:type="MSPage">
        <g id="Icons" sketch:type="MSLayerGroup" transform="translate(-192.000000, -581.000000)" stroke="#406661" fill="#406661">
            <path d="M207.416,585.114 C207.609,584.8 207.752,584.45 207.752,584.053 C207.752,582.92 206.832,582 205.701,582 C204.566,582 203.646,582.92 203.646,584.053 C203.646,584.449 203.789,584.799 203.982,585.114 C197.791,585.956 193,591.267 193,597.687 L193,599.923 C193,600.234 193.252,600.485 193.562,600.485 L217.835,600.485 C218.146,600.485 218.397,600.233 218.397,599.923 L218.397,597.687 C218.398,591.267 213.607,585.956 207.416,585.114 L207.416,585.114 Z M205.701,583.126 C206.215,583.126 206.631,583.542 206.631,584.054 C206.631,584.566 206.215,584.982 205.701,584.982 C205.189,584.982 204.771,584.566 204.771,584.054 C204.771,583.542 205.189,583.126 205.701,583.126 L205.701,583.126 Z M205.701,586.108 C211.892,586.108 216.965,591.001 217.26,597.124 L194.139,597.124 C194.434,591.001 199.506,586.108 205.701,586.108 L205.701,586.108 Z M217.273,599.358 L194.125,599.358 L194.125,598.249 L217.273,598.249 L217.273,599.358 Z M205.646,588.021 C203.087,588.021 200.666,589.017 198.845,590.828 C198.622,591.047 198.622,591.402 198.841,591.625 C198.95,591.734 199.093,591.791 199.239,591.791 C199.384,591.791 199.526,591.736 199.635,591.627 C201.244,590.027 203.383,589.148 205.598,589.147 C205.94,589.178 206.233,588.922 206.233,588.588 C206.234,588.276 205.957,588.021 205.646,588.021 Z" id="Platter-2" sketch:type="MSShapeGroup"></path>
        </g>
    </g>
</svg>