<?xml version="1.0" encoding="UTF-8" standalone="no"?>
<svg width="58px" height="42px" viewBox="0 0 58 42" version="1.1" xmlns="http://www.w3.org/2000/svg" xmlns:xlink="http://www.w3.org/1999/xlink">
    <!-- Generator: Sketch 39.1 (31720) - http://www.bohemiancoding.com/sketch -->
    <title>gamepad copy</title>
    <desc>Created with Sketch.</desc>
    <defs></defs>
    <g id="Page-1" stroke="none" stroke-width="1" fill="none" fill-rule="evenodd">
        <path d="M57.8108094,31.2059672 L52.8000599,7.13580431 C51.7930245,2.2997326 47.0398275,-0.817086528 42.2044542,0.188965822 C40.3210388,0.581733673 38.6092415,1.57675392 37.3370122,3.00942261 L20.6631169,3.00942261 C19.3907623,1.57675392 17.678965,0.581733673 15.7950484,0.188840457 C10.9596752,-0.817587987 6.20685401,2.2997326 5.19994389,7.13592967 L0.189194392,31.2059672 C-0.817840989,36.0445462 2.29608929,40.801262 7.13158783,41.8098216 C7.73889067,41.9359386 8.35608974,41.9998746 8.96614849,41.9998746 C13.1809404,41.9998746 16.8652193,38.9983911 17.7261913,34.8642368 L19.5656374,26.1007373 C20.4105751,26.6400566 21.4124744,26.9542207 22.4869044,26.9542207 C24.1919372,26.9542207 25.7159567,26.165927 26.7158517,24.9350956 C26.7655834,24.9432443 26.8163172,24.9485096 26.8683038,24.9485096 L31.1304473,24.9485096 C31.183436,24.9485096 31.2349214,24.9431189 31.28553,24.9345941 C32.2854251,26.1656763 33.8095698,26.9542207 35.5148531,26.9542207 C36.5886567,26.9542207 37.5899297,26.640558 38.4346168,26.1017402 L40.2735619,34.8628578 C41.1347845,38.9983911 44.8190633,42 49.0338553,42 C49.6437887,42 50.2609878,41.936064 50.8691675,41.8096963 C55.7037892,40.801262 58.8178447,36.0445462 57.8108094,31.2059672 L57.8108094,31.2059672 L57.8108094,31.2059672 Z M22.4869044,25.0736237 C20.5183062,25.0736237 18.9167454,23.470835 18.9167454,21.5007275 C18.9167454,19.53062 20.5183062,17.9278313 22.4869044,17.9278313 C24.4555026,17.9278313 26.0570634,19.53062 26.0570634,21.5007275 C26.0570634,23.470835 24.4555026,25.0736237 22.4869044,25.0736237 L22.4869044,25.0736237 Z M35.5148531,25.0736237 C33.5462549,25.0736237 31.9446941,23.470835 31.9446941,21.5007275 C31.9446941,19.53062 33.5462549,17.9278313 35.5148531,17.9278313 C37.4834513,17.9278313 39.0850121,19.53062 39.0850121,21.5007275 C39.0850121,23.470835 37.4834513,25.0736237 35.5148531,25.0736237 L35.5148531,25.0736237 Z M20.5196841,6.4431639 C20.0941462,6.14604938 19.5083896,6.25047824 19.211628,6.67634239 C18.9148664,7.10220654 19.0190899,7.68828689 19.4446278,7.98540141 C20.1423747,8.47244358 20.7430383,9.11506343 21.1816042,9.84368353 C21.3579825,10.136661 21.668649,10.298883 21.9873327,10.298883 C22.1523116,10.298883 22.3195454,10.2552561 22.4712458,10.1638652 C22.9156993,9.89596064 23.0588815,9.31815437 22.7911822,8.87336014 C22.2174513,7.92046246 21.4320164,7.08001698 20.5196841,6.4431639 L20.5196841,6.4431639 L20.5196841,6.4431639 Z M46.5755816,6.4431639 C46.1500437,6.14604938 45.5644123,6.25047824 45.2675254,6.67634239 C44.9706385,7.10220654 45.0749873,7.68828689 45.5005252,7.98540141 C46.1982721,8.47244358 46.7989357,9.11506343 47.2375016,9.84368353 C47.4138799,10.136661 47.7245464,10.298883 48.0432301,10.298883 C48.208209,10.298883 48.3754428,10.2552561 48.5271432,10.1638652 C48.9715967,9.89596064 49.1147789,9.31815437 48.8470796,8.87336014 C48.2733488,7.92046246 47.4879138,7.08001698 46.5755816,6.4431639 L46.5755816,6.4431639 L46.5755816,6.4431639 Z M50.4865968,39.9684638 C50.0045627,40.0686302 49.5157641,40.1192776 49.03373,40.1192776 C45.7040869,40.1192776 42.7935931,37.7471252 42.1126322,34.4774865 L40.0292879,24.5514794 C40.6190531,23.6801942 40.9639179,22.6300134 40.9639179,21.5006021 C40.9639179,21.2835957 40.9497626,21.0698487 40.9249593,20.8593613 C41.288865,20.9098833 41.6571551,20.9364606 42.0287022,20.9364606 C46.4148618,20.9364606 49.983267,17.3653195 49.983267,12.9757972 C49.983267,12.4564109 49.5626146,12.0355613 49.0437515,12.0355613 C48.5248884,12.0355613 48.104236,12.4564109 48.104236,12.9757972 C48.104236,16.3284274 45.378764,19.0559889 42.0287022,19.0559889 C41.4165139,19.0559889 40.8158503,18.9650995 40.2383614,18.7869561 C39.5186925,17.5370693 38.3192443,16.5975856 36.8925587,16.2241239 C36.2776144,15.252923 35.9531684,14.1342931 35.9531684,12.9756718 C35.9531684,9.62304152 38.6786403,6.89548002 42.0287022,6.89548002 C42.5475653,6.89548002 42.9682177,6.47463046 42.9682177,5.95524418 C42.9682177,5.43585791 42.5475653,5.01500834 42.0287022,5.01500834 C37.6425426,5.01500834 34.0741374,8.58614943 34.0741374,12.9756718 C34.0741374,14.0630859 34.2929818,15.124048 34.713509,16.1065318 C32.0873752,16.4955387 30.0655378,18.7658948 30.0655378,21.5004767 C30.0655378,22.0451867 30.1467119,22.5709666 30.295907,23.0676618 L27.7057253,23.0676618 C27.8549203,22.5709666 27.9360945,22.0451867 27.9360945,21.5004767 C27.9360945,18.7657695 25.9141318,16.4954133 23.287998,16.1065318 C23.7082746,15.1253017 23.9274949,14.0660946 23.9274949,12.9756718 C23.9274949,12.4562855 23.5068425,12.035436 22.9879794,12.035436 C22.4691162,12.035436 22.0484638,12.4562855 22.0484638,12.9756718 C22.0484638,14.1376779 21.7237673,15.2532991 21.1084472,16.2242493 C19.6821374,16.597711 18.483065,17.5370693 17.7633961,18.78658 C17.1859072,18.964598 16.5846173,19.0557382 15.9729301,19.0557382 C12.6228682,19.0557382 9.89739628,16.3281767 9.89739628,12.9755464 C9.89739628,9.62291615 12.6228682,6.89535466 15.9729301,6.89535466 C16.4917932,6.89535466 16.9124456,6.4745051 16.9124456,5.95511882 C16.9124456,5.43573254 16.4917932,5.01488298 15.9729301,5.01488298 C11.5867705,5.01488298 8.01836522,8.58602407 8.01836522,12.9755464 C8.01836522,17.3650688 11.5867705,20.9362099 15.9729301,20.9362099 C16.3442266,20.9362099 16.7125167,20.9091311 17.0766729,20.8584837 C17.0518697,21.0692219 17.0377143,21.2830942 17.0377143,21.5003514 C17.0377143,22.6288851 17.3820781,23.678439 17.9710917,24.5493482 L15.8869957,34.4786147 C15.2064106,37.7467492 12.2957915,40.1189015 8.96614849,40.1189015 C8.48411439,40.1189015 7.99531577,40.0682541 7.51415855,39.9683384 C3.69371259,39.1715199 1.23293351,35.4125823 2.02864053,31.5889566 L7.03939004,7.51904443 C7.83522232,3.69742452 11.5919065,1.23526026 15.4121019,2.02932077 C17.0196756,2.36467156 18.4689096,3.25501222 19.4929816,4.53649098 C19.671239,4.75951492 19.9413184,4.88939284 20.2266806,4.88939284 L37.7729474,4.88939284 C38.0584348,4.88939284 38.328389,4.75951492 38.5066464,4.53649098 C39.530593,3.25501222 40.9799523,2.36467156 42.5868997,2.02944614 C46.4083478,1.23488417 50.1644056,3.69742452 50.9602379,7.51891907 L55.9709874,31.5889566 C56.7670702,35.4130838 54.3062912,39.171896 50.4865968,39.9684638 L50.4865968,39.9684638 L50.4865968,39.9684638 Z M15.9729301,8.02401376 C15.4540669,8.02401376 15.0334145,8.44486332 15.0334145,8.9642496 L15.0334145,10.9700861 C15.0334145,11.4894723 15.4540669,11.9103219 15.9729301,11.9103219 C16.4917932,11.9103219 16.9124456,11.4894723 16.9124456,10.9700861 L16.9124456,8.9642496 C16.9124456,8.44486332 16.4917932,8.02401376 15.9729301,8.02401376 L15.9729301,8.02401376 L15.9729301,8.02401376 Z M15.9729301,14.0415231 C15.4540669,14.0415231 15.0334145,14.4623727 15.0334145,14.981759 L15.0334145,16.9875954 C15.0334145,17.5069817 15.4540669,17.9278313 15.9729301,17.9278313 C16.4917932,17.9278313 16.9124456,17.5069817 16.9124456,16.9875954 L16.9124456,14.981759 C16.9124456,14.4623727 16.4917932,14.0415231 15.9729301,14.0415231 L15.9729301,14.0415231 L15.9729301,14.0415231 Z M13.9686303,12.0356867 L11.9643305,12.0356867 C11.4454673,12.0356867 11.0248149,12.4565362 11.0248149,12.9759225 C11.0248149,13.4953088 11.4454673,13.9161584 11.9643305,13.9161584 L13.9686303,13.9161584 C14.4874934,13.9161584 14.9081458,13.4953088 14.9081458,12.9759225 C14.9081458,12.4565362 14.4874934,12.0356867 13.9686303,12.0356867 L13.9686303,12.0356867 Z M19.9815297,12.0356867 L17.9772299,12.0356867 C17.4583667,12.0356867 17.0377143,12.4565362 17.0377143,12.9759225 C17.0377143,13.4953088 17.4583667,13.9161584 17.9772299,13.9161584 L19.9815297,13.9161584 C20.5003928,13.9161584 20.9210452,13.4953088 20.9210452,12.9759225 C20.9210452,12.4565362 20.5003928,12.0356867 19.9815297,12.0356867 L19.9815297,12.0356867 Z M42.0288275,8.02401376 C41.5099643,8.02401376 41.0893119,8.44486332 41.0893119,8.9642496 L41.0893119,10.9700861 C41.0893119,11.4894723 41.5099643,11.9103219 42.0288275,11.9103219 C42.5476906,11.9103219 42.968343,11.4894723 42.968343,10.9700861 L42.968343,8.9642496 C42.968343,8.44486332 42.5476906,8.02401376 42.0288275,8.02401376 L42.0288275,8.02401376 L42.0288275,8.02401376 Z M42.0288275,14.0415231 C41.5099643,14.0415231 41.0893119,14.4623727 41.0893119,14.981759 L41.0893119,16.9875954 C41.0893119,17.5069817 41.5099643,17.9278313 42.0288275,17.9278313 C42.5476906,17.9278313 42.968343,17.5069817 42.968343,16.9875954 L42.968343,14.981759 C42.968343,14.4623727 42.5476906,14.0415231 42.0288275,14.0415231 L42.0288275,14.0415231 Z M40.0245277,12.0356867 L38.0202279,12.0356867 C37.5013647,12.0356867 37.0807123,12.4565362 37.0807123,12.9759225 C37.0807123,13.4953088 37.5013647,13.9161584 38.0202279,13.9161584 L40.0245277,13.9161584 C40.5433908,13.9161584 40.9640432,13.4953088 40.9640432,12.9759225 C40.9640432,12.4565362 40.5433908,12.0356867 40.0245277,12.0356867 L40.0245277,12.0356867 Z M46.0374271,12.0356867 L44.0331273,12.0356867 C43.5142641,12.0356867 43.0936117,12.4565362 43.0936117,12.9759225 C43.0936117,13.4953088 43.5142641,13.9161584 44.0331273,13.9161584 L46.0374271,13.9161584 C46.5562902,13.9161584 46.9769426,13.4953088 46.9769426,12.9759225 C46.9769426,12.4565362 46.5562902,12.0356867 46.0374271,12.0356867 L46.0374271,12.0356867 Z M22.4869044,20.0590325 C21.6925753,20.0590325 21.0463139,20.7057894 21.0463139,21.5007275 C21.0463139,22.2956655 21.6925753,22.9424224 22.4869044,22.9424224 C23.2812335,22.9424224 23.9274949,22.2956655 23.9274949,21.5007275 C23.9274949,20.7057894 23.2812335,20.0590325 22.4869044,20.0590325 L22.4869044,20.0590325 Z M31.0051786,12.0356867 L26.996579,12.0356867 C26.4777158,12.0356867 26.0570634,12.4565362 26.0570634,12.9759225 C26.0570634,13.4953088 26.4777158,13.9161584 26.996579,13.9161584 L31.0051786,13.9161584 C31.5240417,13.9161584 31.9446941,13.4953088 31.9446941,12.9759225 C31.9446941,12.4565362 31.5240417,12.0356867 31.0051786,12.0356867 L31.0051786,12.0356867 Z M35.5148531,20.0590325 C34.720524,20.0590325 34.0742626,20.7057894 34.0742626,21.5007275 C34.0742626,22.2956655 34.720524,22.9424224 35.5148531,22.9424224 C36.3091822,22.9424224 36.9554436,22.2956655 36.9554436,21.5007275 C36.9554436,20.7057894 36.3091822,20.0590325 35.5148531,20.0590325 L35.5148531,20.0590325 Z" id="gamepad-copy" fill="#FFFFFF"></path>
    </g>
</svg>
