<?xml version="1.0" encoding="UTF-8" standalone="no"?>
<svg width="58px" height="40px" viewBox="0 0 58 40" version="1.1" xmlns="http://www.w3.org/2000/svg" xmlns:xlink="http://www.w3.org/1999/xlink">
    <!-- Generator: Sketch 39.1 (31720) - http://www.bohemiancoding.com/sketch -->
    <title>sunglasses copy</title>
    <desc>Created with Sketch.</desc>
    <defs></defs>
    <g id="Page-1" stroke="none" stroke-width="1" fill="none" fill-rule="evenodd">
        <path d="M56.3877679,4.68309183 L52.7690187,0.338446049 C52.4368969,-0.0605456354 51.8439654,-0.114588821 51.4451686,0.218071436 C51.0463717,0.550606303 50.9926056,1.14357666 51.3248527,1.54256834 L54.943602,5.88721412 C55.7023437,6.79817408 56.1201905,7.95276724 56.1201905,9.13833178 L56.1201905,25.0781875 L54.9922296,25.0781875 L54.9922296,24.0123706 C54.9922296,22.9406604 54.1208171,22.0688222 53.0496303,22.0688222 L32.9969921,22.0688222 C31.9258052,22.0688222 31.0543928,22.9406604 31.0543928,24.0123706 L31.0543928,24.648726 C30.4550696,24.2977588 29.758867,24.0986391 29.0215566,24.0986391 C28.2576764,24.0986391 27.5351548,24.3159403 26.9185362,24.6956219 L26.9185362,24.012496 C26.9185362,22.9407858 26.0471237,22.0689476 24.9759368,22.0689476 L4.92329866,22.0689476 C3.85211179,22.0689476 2.98069934,22.9407858 2.98069934,24.012496 L2.98069934,25.0783129 L1.87993483,25.0783129 L1.87993483,9.13833178 C1.87993483,7.95264185 2.29778168,6.79804869 3.05639804,5.88721412 L6.67527259,1.54256834 C7.00751974,1.14357666 6.9537536,0.550606303 6.55495676,0.218071436 C6.15615992,-0.11421265 5.56360446,-0.0604202452 5.23110665,0.338446049 L1.61223211,4.68309183 C0.57250282,5.93135148 0,7.51352529 0,9.13833178 L0,28.0248577 C0,29.6496642 1.3212182,30.9715279 2.94523123,30.9715279 L2.98057401,30.9715279 L2.98057401,31.7939624 C2.98057401,32.8489957 3.39115177,33.8409577 4.13685926,34.5869041 L8.68442161,39.1366883 C9.24075699,39.6931701 9.98032335,39.9997492 10.7668881,39.9997492 L19.1319714,39.9997492 C19.9185362,39.9997492 20.6582278,39.6932955 21.2146886,39.1366883 L25.7621256,34.5869041 C26.5077077,33.8408323 26.9184108,32.8489957 26.9184108,31.7940877 L26.9184108,27.7207864 C26.9196641,27.7151438 26.9214187,27.7097521 26.9225467,27.7041095 C27.1185612,26.7048748 28.0012533,25.9796178 29.0214313,25.9796178 C29.9606467,25.9796178 30.7726532,26.5861303 31.0542675,27.45684 L31.0542675,31.7942131 C31.0542675,32.8492465 31.4648452,33.8412085 32.2105527,34.5871549 L36.7581151,39.1369391 C37.3144504,39.6934209 38.0540168,40 38.8405815,40 L47.2056649,40 C47.9922296,40 48.7319213,39.6935463 49.288382,39.1369391 L53.835819,34.5871549 C54.5814012,33.8410831 54.9921043,32.8492465 54.9921043,31.7943385 L54.9921043,30.9719041 L55.0547688,30.9719041 C56.6787818,30.9719041 58,29.6500404 58,28.0252339 L58,9.13833178 C58,7.51365068 57.4274972,5.93135148 56.3877679,4.68309183 L56.3877679,4.68309183 L56.3877679,4.68309183 L56.3877679,4.68309183 Z M2.94523123,29.0905492 C2.35781426,29.0905492 1.87993483,28.6124363 1.87993483,28.0247323 L1.87993483,26.9589154 L2.98057401,26.9589154 L2.98057401,29.0905492 L2.94523123,29.0905492 L2.94523123,29.0905492 L2.94523123,29.0905492 L2.94523123,29.0905492 Z M19.8854493,37.8064235 C19.6841709,38.0078002 19.4165936,38.1186451 19.1319714,38.1186451 L10.7668881,38.1186451 C10.4823913,38.1186451 10.2149392,38.0078002 10.0136609,37.8064235 L8.19513724,35.9870114 L12.9438526,35.9870114 C13.4630906,35.9870114 13.88382,35.565951 13.88382,35.0465847 C13.88382,34.5272184 13.4630906,34.106158 12.9438526,34.106158 L6.31520241,34.106158 L5.46622384,33.2567647 C5.11843589,32.9089322 4.91101642,32.4589067 4.86928186,31.9745243 L12.9443539,31.9745243 C13.4635919,31.9745243 13.8843213,31.5534639 13.8843213,31.0340976 C13.8843213,30.5147313 13.4635919,30.093671 12.9443539,30.093671 L4.88469733,30.093671 C4.88607595,30.0728562 4.88783056,30.0521668 4.88783056,30.0309758 C4.88783056,29.9546132 4.87767891,29.880633 4.86050884,29.8095367 L4.86050884,27.9620372 L12.9443539,27.9620372 C13.4635919,27.9620372 13.8843213,27.5409768 13.8843213,27.0216105 C13.8843213,26.5022442 13.4635919,26.0811839 12.9443539,26.0811839 L4.88469733,26.0811839 C4.88607595,26.0603691 4.88783056,26.0396797 4.88783056,26.0184888 C4.88783056,25.9421261 4.87767891,25.8681459 4.86050884,25.7970496 L4.86050884,24.0122452 C4.86050884,23.9776375 4.88870786,23.9495501 4.92317333,23.9495501 L24.9758115,23.9495501 C25.010277,23.9495501 25.038476,23.9776375 25.038476,24.0122452 L25.038476,26.0811839 L22.9705477,26.0811839 C22.4513097,26.0811839 22.0305803,26.5022442 22.0305803,27.0216105 C22.0305803,27.5409768 22.4513097,27.9620372 22.9705477,27.9620372 L25.038476,27.9620372 L25.038476,30.093671 L22.9705477,30.093671 C22.4513097,30.093671 22.0305803,30.5147313 22.0305803,31.0340976 C22.0305803,31.5534639 22.4513097,31.9745243 22.9705477,31.9745243 L25.029703,31.9745243 C24.9879684,32.4589067 24.7804236,32.9089322 24.432761,33.2567647 L19.8854493,37.8064235 L19.8854493,37.8064235 L19.8854493,37.8064235 L19.8854493,37.8064235 Z M47.9591427,37.8064235 C47.7578644,38.0078002 47.490287,38.1186451 47.2056649,38.1186451 L38.8405815,38.1186451 C38.5560847,38.1186451 38.2886327,38.0078002 38.0873543,37.8064235 L36.2688307,35.9870114 L41.0175461,35.9870114 C41.5367841,35.9870114 41.9575135,35.565951 41.9575135,35.0465847 C41.9575135,34.5272184 41.5367841,34.106158 41.0175461,34.106158 L34.3888959,34.106158 L33.5399173,33.2567647 C33.1921293,32.9089322 32.9847099,32.4589067 32.9429753,31.9745243 L41.0180474,31.9745243 C41.5372854,31.9745243 41.9580148,31.5534639 41.9580148,31.0340976 C41.9580148,30.5147313 41.5372854,30.093671 41.0180474,30.093671 L32.9342023,30.093671 L32.9342023,27.9620372 L41.0180474,27.9620372 C41.5372854,27.9620372 41.9580148,27.5409768 41.9580148,27.0216105 C41.9580148,26.5022442 41.5372854,26.0811839 41.0180474,26.0811839 L32.9342023,26.0811839 L32.9342023,24.0122452 C32.9342023,23.9776375 32.9624013,23.9495501 32.9968668,23.9495501 L53.049505,23.9495501 C53.0839704,23.9495501 53.1121694,23.9776375 53.1121694,24.0122452 L53.1121694,26.0811839 L51.0442411,26.0811839 C50.5250031,26.0811839 50.1042737,26.5022442 50.1042737,27.0216105 C50.1042737,27.5409768 50.5250031,27.9620372 51.0442411,27.9620372 L53.1121694,27.9620372 L53.1121694,30.093671 L51.0442411,30.093671 C50.5250031,30.093671 50.1042737,30.5147313 50.1042737,31.0340976 C50.1042737,31.5534639 50.5250031,31.9745243 51.0442411,31.9745243 L53.1033964,31.9745243 C53.0616619,32.4589067 52.8541171,32.9089322 52.5064544,33.2567647 L47.9591427,37.8064235 L47.9591427,37.8064235 L47.9591427,37.8064235 L47.9591427,37.8064235 Z M55.0547688,29.0905492 L54.9921043,29.0905492 L54.9921043,26.9589154 L56.1200652,26.9589154 L56.1200652,28.0247323 C56.1200652,28.6124363 55.6421857,29.0905492 55.0547688,29.0905492 L55.0547688,29.0905492 L55.0547688,29.0905492 Z M16.9547562,27.9620372 L18.9596441,27.9620372 C19.4788821,27.9620372 19.8996115,27.5409768 19.8996115,27.0216105 C19.8996115,26.5022442 19.4788821,26.0811839 18.9596441,26.0811839 L16.9547562,26.0811839 C16.4355182,26.0811839 16.0147888,26.5022442 16.0147888,27.0216105 C16.0147888,27.5409768 16.4356436,27.9620372 16.9547562,27.9620372 L16.9547562,27.9620372 L16.9547562,27.9620372 L16.9547562,27.9620372 Z M16.9547562,31.9745243 L18.9596441,31.9745243 C19.4788821,31.9745243 19.8996115,31.5534639 19.8996115,31.0340976 C19.8996115,30.5147313 19.4788821,30.093671 18.9596441,30.093671 L16.9547562,30.093671 C16.4355182,30.093671 16.0147888,30.5147313 16.0147888,31.0340976 C16.0147888,31.5534639 16.4356436,31.9745243 16.9547562,31.9745243 L16.9547562,31.9745243 L16.9547562,31.9745243 L16.9547562,31.9745243 Z M18.9601454,34.106158 L16.9547562,34.106158 C16.4355182,34.106158 16.0147888,34.5272184 16.0147888,35.0465847 C16.0147888,35.565951 16.4355182,35.9870114 16.9547562,35.9870114 L18.9601454,35.9870114 C19.4793834,35.9870114 19.9001128,35.565951 19.9001128,35.0465847 C19.9001128,34.5272184 19.4793834,34.106158 18.9601454,34.106158 L18.9601454,34.106158 L18.9601454,34.106158 Z M45.0284497,27.9620372 L47.0333375,27.9620372 C47.5525755,27.9620372 47.9733049,27.5409768 47.9733049,27.0216105 C47.9733049,26.5022442 47.5525755,26.0811839 47.0333375,26.0811839 L45.0284497,26.0811839 C44.5092117,26.0811839 44.0884823,26.5022442 44.0884823,27.0216105 C44.0884823,27.5409768 44.509337,27.9620372 45.0284497,27.9620372 L45.0284497,27.9620372 L45.0284497,27.9620372 Z M45.0284497,31.9745243 L47.0333375,31.9745243 C47.5525755,31.9745243 47.9733049,31.5534639 47.9733049,31.0340976 C47.9733049,30.5147313 47.5525755,30.093671 47.0333375,30.093671 L45.0284497,30.093671 C44.5092117,30.093671 44.0884823,30.5147313 44.0884823,31.0340976 C44.0884823,31.5534639 44.509337,31.9745243 45.0284497,31.9745243 L45.0284497,31.9745243 L45.0284497,31.9745243 Z M47.0338388,34.106158 L45.0284497,34.106158 C44.5092117,34.106158 44.0884823,34.5272184 44.0884823,35.0465847 C44.0884823,35.565951 44.5092117,35.9870114 45.0284497,35.9870114 L47.0338388,35.9870114 C47.5530768,35.9870114 47.9738062,35.565951 47.9738062,35.0465847 C47.9738062,34.5272184 47.5530768,34.106158 47.0338388,34.106158 L47.0338388,34.106158 L47.0338388,34.106158 Z" id="sunglasses-copy" fill="#86428A"></path>
    </g>
</svg>