<?xml version="1.0" encoding="UTF-8" standalone="no"?>
<svg width="13px" height="18px" viewBox="0 0 13 18" version="1.1" xmlns="http://www.w3.org/2000/svg" xmlns:xlink="http://www.w3.org/1999/xlink">
    <!-- Generator: Sketch 3.8.3 (29802) - http://www.bohemiancoding.com/sketch -->
    <title>ic_pin</title>
    <desc>Created with Sketch.</desc>
    <defs></defs>
    <g id="web" stroke="none" stroke-width="1" fill="none" fill-rule="evenodd">
        <g id="Search-car" transform="translate(-514.000000, -99.000000)">
            <g id="ic_pin" transform="translate(506.000000, 93.000000)">
                <g>
                    <rect id="Rectangle-346" x="0" y="0" width="30" height="30"></rect>
                    <path d="M14.3372174,15.2385 C15.9616522,15.2385 17.2831304,13.923375 17.2831304,12.30675 C17.2831304,10.690125 15.9616522,9.375 14.3372174,9.375 C12.7127826,9.375 11.3913043,10.690125 11.3913043,12.30675 C11.3913043,13.923375 12.7127826,15.2385 14.3372174,15.2385 L14.3372174,15.2385 Z M14.3372174,10.5 C15.3376522,10.5 16.1526957,11.31 16.1526957,12.30675 C16.1526957,13.3035 15.3387826,14.1135 14.3372174,14.1135 C13.3356522,14.1135 12.5217391,13.302375 12.5217391,12.30675 C12.5217391,11.311125 13.3356522,10.5 14.3372174,10.5 L14.3372174,10.5 Z M13.9257391,23.695125 C14.0206957,23.79975 14.1122609,23.86725 14.2004348,23.9145 C14.2015652,23.915625 14.2038261,23.915625 14.2049565,23.91675 C14.266,23.94825 14.325913,23.971875 14.3824348,23.971875 C14.4389565,23.971875 14.4988696,23.94825 14.559913,23.91675 C14.5610435,23.915625 14.5633043,23.915625 14.5644348,23.9145 C14.6526087,23.86725 14.7441739,23.79975 14.8391304,23.695125 C14.8391304,23.695125 20.0933913,18.00825 20.6213043,13.08075 C20.6529565,12.8265 20.6744348,12.568875 20.6744348,12.30675 C20.6744348,8.82375 17.8370435,6 14.3372174,6 C10.8373913,6 8,8.82375 8,12.30675 C8,12.573375 8.02147826,12.83325 8.05426087,13.090875 C8.59573913,18.016125 13.9257391,23.695125 13.9257391,23.695125 L13.9257391,23.695125 Z M14.3372174,7.125 C17.2085217,7.125 19.544,9.44925 19.544,12.30675 C19.544,12.496875 19.5304348,12.699375 19.4976522,12.9615 C19.0929565,16.737 15.5309565,21.16725 14.3835652,22.515 C13.2067826,21.165 9.59391304,16.746 9.17565217,12.9525 C9.14513043,12.703875 9.13043478,12.499125 9.13043478,12.30675 C9.13043478,9.44925 11.465913,7.125 14.3372174,7.125 L14.3372174,7.125 Z" id="Shape" fill="#000000"></path>
                </g>
            </g>
        </g>
    </g>
</svg>
