<?xml version="1.0" encoding="UTF-8" standalone="no"?>
<svg width="58px" height="46px" viewBox="0 0 58 46" version="1.1" xmlns="http://www.w3.org/2000/svg" xmlns:xlink="http://www.w3.org/1999/xlink">
    <!-- Generator: Sketch 39.1 (31720) - http://www.bohemiancoding.com/sketch -->
    <title>turntable</title>
    <desc>Created with Sketch.</desc>
    <defs></defs>
    <g id="Page-1" stroke="none" stroke-width="1" fill="none" fill-rule="evenodd">
        <path d="M22.987041,6.01634877 C13.6274946,6.01634877 6.01295896,13.6351771 6.01295896,23 C6.01295896,32.3648229 13.6274946,39.9836512 22.987041,39.9836512 C32.3465875,39.9836512 39.9611231,32.3648229 39.9611231,23 C39.9611231,13.6351771 32.3465875,6.01634877 22.987041,6.01634877 L22.987041,6.01634877 L22.987041,6.01634877 L22.987041,6.01634877 Z M53.0518359,0 L4.94816415,0 C2.21978402,0 0,2.22103542 0,4.95095368 L0,41.0490463 C0,43.7789646 2.21978402,46 4.94816415,46 L53.0518359,46 C55.780216,46 58,43.7789646 58,41.0490463 L58,4.95095368 C58,2.22103542 55.780216,0 53.0518359,0 L53.0518359,0 L53.0518359,0 Z M22.987041,38.1035422 C14.6636026,38.1035422 7.89200864,31.3281308 7.89200864,23 C7.89200864,14.6718692 14.6636026,7.89645777 22.987041,7.89645777 C31.3104795,7.89645777 38.0820734,14.6718692 38.0820734,23 C38.0820734,31.3281308 31.3104795,38.1035422 22.987041,38.1035422 L22.987041,38.1035422 L22.987041,38.1035422 Z M56.1209503,41.0490463 C56.1209503,42.7422725 54.7442333,44.119891 53.0518359,44.119891 L4.94816415,44.119891 C3.25576674,44.119891 1.87904968,42.7422725 1.87904968,41.0490463 L1.87904968,4.95095368 C1.87904968,3.25772752 3.25576674,1.88010899 4.94816415,1.88010899 L53.0518359,1.88010899 C54.7442333,1.88010899 56.1209503,3.25772752 56.1209503,4.95095368 L56.1209503,41.0490463 L56.1209503,41.0490463 L56.1209503,41.0490463 Z M27.9352052,23 C27.9352052,20.2700817 25.7154212,18.0490463 22.987041,18.0490463 C20.2586609,18.0490463 18.0388769,20.2700817 18.0388769,23 C18.0388769,25.7299183 20.2586609,27.9509537 22.987041,27.9509537 C25.7154212,27.9509537 27.9352052,25.7299183 27.9352052,23 L27.9352052,23 L27.9352052,23 Z M19.9179266,23 C19.9179266,21.3067738 21.2946436,19.9291553 22.987041,19.9291553 C24.6794384,19.9291553 26.0561555,21.3067738 26.0561555,23 C26.0561555,24.6932262 24.6794384,26.0708447 22.987041,26.0708447 C21.2946436,26.0708447 19.9179266,24.6932262 19.9179266,23 L19.9179266,23 L19.9179266,23 Z M33.8743801,28.2030136 C33.425162,27.9428065 32.8505486,28.0965995 32.5906134,28.5459455 C30.6124752,31.9672425 26.9325443,34.0926431 22.987041,34.0926431 C22.4680475,34.0926431 22.0475162,34.5135368 22.0475162,35.0326975 C22.0475162,35.5518583 22.4680475,35.972752 22.987041,35.972752 C27.6011102,35.972752 31.9042592,33.4877493 34.2171188,29.4875041 C34.477054,29.0380327 34.323473,28.46297 33.8743801,28.2030136 L33.8743801,28.2030136 L33.8743801,28.2030136 Z M35.012959,22.0599455 C34.4939654,22.0599455 34.0734341,22.4808392 34.0734341,23 C34.0734341,23.6205613 34.0218229,24.2431281 33.9199784,24.8504033 C33.8340432,25.3624196 34.1792873,25.8471117 34.6910151,25.93297 C34.7437538,25.9418692 34.7959914,25.9460054 34.8476026,25.9460054 C35.2981987,25.9460054 35.6960562,25.6207466 35.7730972,25.1613733 C35.8921037,24.4515695 35.9524838,23.7244687 35.9524838,22.9998747 C35.9524838,22.4808392 35.5319525,22.0599455 35.012959,22.0599455 L35.012959,22.0599455 L35.012959,22.0599455 L35.012959,22.0599455 Z M20.9817192,12.0738093 C21.0333305,12.0738093 21.0856933,12.0695477 21.1383067,12.0607738 C21.7444881,11.9589973 22.3665788,11.9073569 22.987041,11.9073569 C23.5060346,11.9073569 23.9265659,11.4864632 23.9265659,10.9673025 C23.9265659,10.4481417 23.5060346,10.027248 22.987041,10.027248 C22.26273,10.027248 21.5360389,10.0875368 20.8273866,10.2066104 C20.3156587,10.292594 19.9704147,10.7772861 20.0563499,11.2893025 C20.1333909,11.7485504 20.5312484,12.0738093 20.9817192,12.0738093 L20.9817192,12.0738093 L20.9817192,12.0738093 L20.9817192,12.0738093 Z M17.4437192,13.391139 C17.8929374,13.1311826 18.0463931,12.5559946 17.7863326,12.1066485 C17.5266479,11.6573025 16.9519093,11.5037602 16.5026911,11.7637166 C12.5049503,14.0781308 10.0215983,18.3835804 10.0215983,23 C10.0215983,23.5191608 10.4421296,23.9400545 10.9611231,23.9400545 C11.4801166,23.9400545 11.9006479,23.5191608 11.9006479,23 C11.9006479,19.0523978 14.0246004,15.3705177 17.4437192,13.391139 L17.4437192,13.391139 L17.4437192,13.391139 L17.4437192,13.391139 Z M22.987041,14.0381471 C22.2292829,14.0381471 21.4760346,14.1331553 20.7484665,14.3205395 C20.2458834,14.449891 19.9433564,14.9625341 20.072635,15.4652752 C20.1817451,15.8894278 20.5634428,16.1711935 20.9819698,16.1711935 C21.0593866,16.1711935 21.1381814,16.1615422 21.2167257,16.1412371 C21.7915896,15.9932098 22.3871231,15.9181308 22.987041,15.9181308 C23.5060346,15.9181308 23.9265659,15.4972371 23.9265659,14.9780763 C23.9265659,14.4589155 23.5060346,14.0381471 22.987041,14.0381471 L22.987041,14.0381471 L22.987041,14.0381471 L22.987041,14.0381471 Z M18.3888812,16.3612098 C18.0456415,15.9720272 17.451987,15.9349264 17.0627732,16.2783597 C15.1354946,17.980109 14.0302376,20.4301417 14.0302376,23 C14.0302376,23.5191608 14.4507689,23.9400545 14.9697624,23.9400545 C15.4887559,23.9400545 15.9092873,23.5191608 15.9092873,23 C15.9092873,20.9692316 16.7829201,19.0330954 18.306203,17.6880654 C18.6951663,17.3445068 18.7322462,16.7505177 18.3888812,16.3612098 L18.3888812,16.3612098 L18.3888812,16.3612098 Z M22.0475162,31.0217984 C22.0475162,31.5409591 22.4680475,31.9618529 22.987041,31.9618529 C25.5555767,31.9618529 28.0042289,30.8558474 29.7048942,28.9276076 C30.0482592,28.5384251 30.0111793,27.9443106 29.622216,27.600752 C29.2330022,27.2573188 28.639473,27.2942943 28.296108,27.6836022 C26.9517106,29.2076185 25.0166652,30.0817439 22.987041,30.0817439 C22.4680475,30.0817439 22.0475162,30.5026376 22.0475162,31.0217984 L22.0475162,31.0217984 L22.0475162,31.0217984 Z M30.51727,25.9166757 C30.5958143,25.9369809 30.6746091,25.9466322 30.7521512,25.9466322 C31.1705529,25.9466322 31.5522505,25.6648665 31.6613607,25.2407139 C31.8487646,24.5126104 31.9438445,23.7586866 31.9438445,23.0001253 C31.9438445,22.4809646 31.5233132,22.0600708 31.0043197,22.0600708 C30.4853261,22.0600708 30.0647948,22.4809646 30.0647948,23.0001253 C30.0647948,23.6007575 29.9897581,24.1968774 29.8418143,24.7719401 C29.7124104,25.2745559 30.0148121,25.7870736 30.51727,25.9166757 L30.51727,25.9166757 L30.51727,25.9166757 Z M48.0410367,5.01362398 C46.4177883,5.01362398 45.0971922,6.33496458 45.0971922,7.95912807 C45.0971922,9.2546485 45.9377538,10.3566431 47.1015119,10.7499619 L47.1015119,11.9700272 C47.1015119,12.489188 47.5220432,12.9100817 48.0410367,12.9100817 C48.5600302,12.9100817 48.9805616,12.489188 48.9805616,11.9700272 L48.9805616,10.7499619 C50.1443197,10.3566431 50.9848812,9.2546485 50.9848812,7.95912807 C50.9848812,6.33496458 49.6642851,5.01362398 48.0410367,5.01362398 L48.0410367,5.01362398 L48.0410367,5.01362398 Z M48.0410367,9.02452316 C47.4538963,9.02452316 46.9762419,8.54659946 46.9762419,7.95912807 C46.9762419,7.37165668 47.4538963,6.89373297 48.0410367,6.89373297 C48.6281771,6.89373297 49.1058315,7.37165668 49.1058315,7.95912807 C49.1058315,8.54659946 48.6281771,9.02452316 48.0410367,9.02452316 L48.0410367,9.02452316 L48.0410367,9.02452316 Z M48.0410367,15.0408719 C47.5220432,15.0408719 47.1015119,15.4617657 47.1015119,15.9809264 L47.1015119,29.3604087 C47.1015119,30.1806376 46.7821987,30.9518583 46.2024492,31.5318093 L44.3390583,33.3962507 C43.9374428,33.1963324 43.492108,33.0899183 43.0301123,33.0899183 C42.2432916,33.0899183 41.5038229,33.3965014 40.9486263,33.9527629 L39.9467171,34.9552371 C39.3905184,35.5114986 39.0842333,36.2512589 39.0842333,37.0381471 C39.0842333,37.8250354 39.3905184,38.5647956 39.946216,39.1203052 C40.5019136,39.6770681 41.241257,39.9836512 42.0280778,39.9836512 C42.8148985,39.9836512 43.5543672,39.6770681 44.1095637,39.1208065 L45.111473,38.1183324 C45.6676717,37.5620708 45.9740821,36.822436 45.9740821,36.0354223 C45.9740821,35.5731662 45.8676026,35.1277057 45.667797,34.7257384 L47.5310626,32.861297 C48.4657019,31.9262561 48.9804363,30.6830027 48.9804363,29.3604087 L48.9804363,15.9809264 C48.9805616,15.4617657 48.5600302,15.0408719 48.0410367,15.0408719 L48.0410367,15.0408719 L48.0410367,15.0408719 Z M43.7829849,36.788594 L42.7804492,37.7916948 C42.5797667,37.9927411 42.3125659,38.1034169 42.0280778,38.1034169 C41.7435896,38.1034169 41.4763888,37.9927411 41.2750799,37.7909428 C41.0740216,37.5898965 40.9632829,37.322545 40.9632829,37.0380218 C40.9632829,36.7534986 41.0740216,36.4861471 41.2753305,36.2848501 L42.2778661,35.2817493 C42.4785486,35.080703 42.7457495,34.9700272 43.0302376,34.9700272 C43.3147257,34.9700272 43.5819266,35.080703 43.7832354,35.2825014 C43.9842937,35.4835477 44.0950324,35.7508992 44.0950324,36.0354223 C44.0950324,36.3199455 43.9842937,36.587297 43.7829849,36.788594 L43.7829849,36.788594 L43.7829849,36.788594 Z M24.5529158,23 C24.5529158,22.1360272 23.850527,21.4332425 22.987041,21.4332425 C22.1235551,21.4332425 21.4211663,22.1360272 21.4211663,23 C21.4211663,23.8639728 22.1235551,24.5667575 22.987041,24.5667575 C23.850527,24.5667575 24.5529158,23.8639728 24.5529158,23 L24.5529158,23 L24.5529158,23 Z M22.6738661,23 C22.6738661,22.8272807 22.8142937,22.6866485 22.987041,22.6866485 C23.1597883,22.6866485 23.300216,22.8272807 23.300216,23 C23.300216,23.1727193 23.1597883,23.3133515 22.987041,23.3133515 C22.8142937,23.3133515 22.6738661,23.1727193 22.6738661,23 L22.6738661,23 L22.6738661,23 Z" id="turntable" fill="#FFFFFF"></path>
    </g>
</svg>
