<?xml version="1.0" encoding="UTF-8" standalone="no"?>
<svg width="31px" height="32px" viewBox="0 0 31 32" version="1.1" xmlns="http://www.w3.org/2000/svg" xmlns:xlink="http://www.w3.org/1999/xlink" xmlns:sketch="http://www.bohemiancoding.com/sketch/ns">
    <!-- Generator: Sketch 3.3.3 (12081) - http://www.bohemiancoding.com/sketch -->
    <title>Headset with microphone 2</title>
    <desc>Created with Sketch.</desc>
    <defs></defs>
    <g id="Page-1" stroke="none" stroke-width="1" fill="none" fill-rule="evenodd" sketch:type="MSPage">
        <g id="Icons" sketch:type="MSLayerGroup" transform="translate(-1.000000, -319.000000)" stroke="#406661" fill="#406661">
            <path d="M27.519,333.026 C27.019,332.85 26.542,332.764 26.072,332.717 L26.072,329.572 C26.072,324.295 21.777,320 16.498,320 C11.219,320 6.922,324.295 6.922,329.572 L6.922,332.717 C6.442,332.764 5.957,332.854 5.451,333.035 C3.09,333.877 1.5,336.117 1.5,338.607 C1.5,341.097 3.09,343.336 5.451,344.179 C6.137,344.425 6.789,344.542 7.439,344.542 L9.248,344.542 C9.543,344.542 9.785,344.302 9.785,344.005 L9.785,333.206 C9.785,332.909 9.543,332.669 9.248,332.669 L7.998,332.669 L7.998,329.571 C7.998,324.885 11.81,321.075 16.498,321.075 C21.184,321.075 24.996,324.886 24.996,329.571 L24.996,332.669 L23.748,332.669 C23.451,332.669 23.209,332.909 23.209,333.206 L23.209,344.005 C23.209,344.302 23.451,344.542 23.748,344.542 L25.018,344.542 L25.018,347.642 L25.018,347.644 C25.02,347.982 24.889,348.298 24.651,348.537 C24.411,348.777 24.09,348.91 23.751,348.91 L23.749,348.91 L20.54,348.91 C20.44,348.494 20.27,348.099 19.96,347.789 C19.517,347.348 18.929,347.103 18.302,347.103 C17.009,347.103 15.956,348.154 15.956,349.449 C15.956,349.746 16.198,349.986 16.495,349.986 L20.108,349.986 L23.749,349.986 L23.751,349.986 C24.38,349.986 24.97,349.742 25.413,349.297 C25.854,348.856 26.095,348.27 26.095,347.645 L26.095,347.643 L26.095,344.495 C26.56,344.448 27.027,344.36 27.521,344.188 C29.898,343.35 31.496,341.108 31.496,338.608 C31.496,336.108 29.895,333.865 27.519,333.026 L27.519,333.026 Z M5.093,342.842 C3.562,341.998 2.575,340.379 2.575,338.608 C2.575,336.835 3.561,335.217 5.093,334.372 L5.093,342.842 L5.093,342.842 Z M8.708,333.746 L8.708,343.467 L7.438,343.467 C7.024,343.467 6.606,343.406 6.168,343.281 L6.168,333.933 C6.606,333.806 7.023,333.745 7.438,333.745 L8.708,333.745 L8.708,333.746 Z M17.149,348.91 C17.354,348.478 17.794,348.18 18.301,348.18 C18.807,348.18 19.246,348.479 19.449,348.91 L17.149,348.91 L17.149,348.91 Z M26.802,343.285 C26.37,343.408 25.96,343.467 25.554,343.467 L24.284,343.467 L24.284,333.746 L25.554,333.746 C25.96,333.746 26.37,333.807 26.802,333.928 L26.802,343.285 L26.802,343.285 Z M27.878,342.854 L27.878,334.362 C29.423,335.204 30.417,336.825 30.417,338.608 C30.417,340.389 29.423,342.012 27.878,342.854 L27.878,342.854 Z" id="Headset-with-microphone-2" sketch:type="MSShapeGroup"></path>
        </g>
    </g>
</svg>