<?xml version="1.0" encoding="UTF-8" standalone="no"?>
<svg width="36px" height="45px" viewBox="0 0 36 45" version="1.1" xmlns="http://www.w3.org/2000/svg" xmlns:xlink="http://www.w3.org/1999/xlink">
    <!-- Generator: Sketch 39.1 (31720) - http://www.bohemiancoding.com/sketch -->
    <title>disco-ball copy</title>
    <desc>Created with Sketch.</desc>
    <defs></defs>
    <g id="Page-1" stroke="none" stroke-width="1" fill="none" fill-rule="evenodd">
        <path d="M20.5128392,9.50510799 C20.8754877,9.00340173 21.0899183,8.38963283 21.0899183,7.72678186 C21.0899183,6.28979482 20.0853515,5.08159827 18.7356948,4.75357451 L18.7356948,0.728941685 C18.7356948,0.32637149 18.4062997,0 18,0 C17.5937003,0 17.2643052,0.32637149 17.2643052,0.728941685 L17.2643052,4.75357451 C15.9146485,5.08150108 14.9100817,6.28979482 14.9100817,7.72678186 C14.9100817,8.38963283 15.1245123,9.00340173 15.4871608,9.50510799 C6.74730245,10.720108 0,18.1760151 0,27.1652268 C0,36.9993305 8.07479019,45 18,45 C27.9252098,45 36,36.9993305 36,27.1652268 C36,18.1760151 29.2526975,10.720108 20.5128392,9.50510799 L20.5128392,9.50510799 L20.5128392,9.50510799 Z M33.5717166,32.6565875 L29.9078583,32.6565875 C30.2510845,31.1309611 30.4501144,29.5318575 30.4958256,27.8941685 L34.5114441,27.8941685 C34.4374823,29.5575162 34.1119128,31.1571058 33.5717166,32.6565875 L33.5717166,32.6565875 L33.5717166,32.6565875 Z M30.2937548,38.0993521 L27.8938202,38.0993521 C28.562812,36.8700648 29.1106594,35.5314363 29.5290245,34.1144708 L32.9644251,34.1144708 C32.271891,35.5726458 31.3688501,36.9138985 30.2937548,38.0993521 L30.2937548,38.0993521 L30.2937548,38.0993521 Z M5.70624523,38.0993521 C4.63114986,36.9138985 3.72810899,35.5726458 3.03557493,34.1144708 L6.47097548,34.1144708 C6.8893406,35.5314363 7.43718801,36.8700648 8.10617984,38.0993521 L5.70624523,38.0993521 L5.70624523,38.0993521 L5.70624523,38.0993521 Z M2.42828338,21.6738661 L6.09214169,21.6738661 C5.74891553,23.1994924 5.54988556,24.7985961 5.50417439,26.4362851 L1.48865395,26.4362851 C1.56251771,24.7729374 1.88808719,23.1733477 2.42828338,21.6738661 L2.42828338,21.6738661 L2.42828338,21.6738661 Z M5.70624523,16.2311015 L8.10627793,16.2311015 C7.43718801,17.4603888 6.88943869,18.7990173 6.47107357,20.2159827 L3.03557493,20.2159827 C3.72810899,18.7578078 4.63114986,17.4165551 5.70624523,16.2311015 L5.70624523,16.2311015 L5.70624523,16.2311015 Z M27.8938202,16.2311015 L30.2937548,16.2311015 C31.3688501,17.4165551 32.271891,18.7578078 32.9644251,20.2159827 L29.5290245,20.2159827 C29.1106594,18.7990173 28.5629101,17.4603888 27.8938202,16.2311015 L27.8938202,16.2311015 L27.8938202,16.2311015 Z M27.0080436,14.7732181 C26.9823433,14.735216 26.9572316,14.6966307 26.9313351,14.6589201 C26.3176676,13.7671814 25.6492643,12.9803132 24.9370136,12.302689 C26.3400327,12.9481425 27.637406,13.7822462 28.794703,14.7732181 L27.0080436,14.7732181 L27.0080436,14.7732181 L27.0080436,14.7732181 Z M23.5422343,27.1652268 C23.5422343,35.9199136 21.1388665,42.2670518 18.7356948,43.3707667 L18.7356948,39.5572354 L19.5694823,39.5572354 C19.975782,39.5572354 20.3051771,39.2308639 20.3051771,38.8282937 C20.3051771,38.4257235 19.975782,38.0993521 19.5694823,38.0993521 L18.7356948,38.0993521 L18.7356948,34.1144708 L21.1389646,34.1144708 C21.5452643,34.1144708 21.8746594,33.7880994 21.8746594,33.3855292 C21.8746594,32.982959 21.5452643,32.6565875 21.1389646,32.6565875 L18.7356948,32.6565875 L18.7356948,27.8941685 L21.1389646,27.8941685 C21.5452643,27.8941685 21.8746594,27.567797 21.8746594,27.1652268 C21.8746594,26.7626566 21.5452643,26.4362851 21.1389646,26.4362851 L18.7356948,26.4362851 L18.7356948,21.6738661 L21.1386703,21.6738661 C21.54497,21.6738661 21.8743651,21.3474946 21.8743651,20.9449244 C21.8743651,20.5423542 21.54497,20.2159827 21.1386703,20.2159827 L18.7356948,20.2159827 L18.7356948,16.2311015 L19.5693842,16.2311015 C19.9756839,16.2311015 20.305079,15.90473 20.305079,15.5021598 C20.305079,15.0995896 19.9756839,14.7732181 19.5693842,14.7732181 L18.7356948,14.7732181 L18.7356948,10.9608531 C19.8145177,11.4582829 20.9003052,13.0096652 21.7478256,15.3186609 C22.9049264,18.4717711 23.5422343,22.6789309 23.5422343,27.1652268 L23.5422343,27.1652268 L23.5422343,27.1652268 Z M14.4626812,39.5572354 L17.2643052,39.5572354 L17.2643052,43.3696004 C16.2728828,42.9124082 15.2755749,41.5647408 14.4626812,39.5572354 L14.4626812,39.5572354 L14.4626812,39.5572354 Z M17.2643052,10.9596868 L17.2643052,14.7732181 L14.4714114,14.7732181 C15.2916621,12.7494816 16.2778856,11.4126998 17.2643052,10.9596868 L17.2643052,10.9596868 L17.2643052,10.9596868 Z M14.4400218,11.6629698 C13.8678474,12.4930886 13.3453079,13.5346004 12.8872153,14.7732181 L10.7928392,14.7732181 C11.852436,13.4141793 13.0875204,12.3489525 14.4400218,11.6629698 L14.4400218,11.6629698 L14.4400218,11.6629698 Z M17.2643052,16.2311015 L17.2643052,20.2159827 L13.0072807,20.2159827 C13.2546703,18.7404104 13.5753351,17.4036285 13.9479891,16.2311015 L17.2643052,16.2311015 L17.2643052,16.2311015 L17.2643052,16.2311015 Z M17.2643052,21.6738661 L17.2643052,26.4362851 L12.4638474,26.4362851 C12.489842,24.7462095 12.605297,23.1512851 12.7928501,21.6738661 L17.2643052,21.6738661 L17.2643052,21.6738661 L17.2643052,21.6738661 Z M17.2643052,27.8941685 L17.2643052,32.6565875 L12.7922616,32.6565875 C12.6006866,31.1388337 12.4891553,29.5385637 12.4637493,27.8941685 L17.2643052,27.8941685 L17.2643052,27.8941685 L17.2643052,27.8941685 Z M17.2643052,34.1144708 L17.2643052,38.0993521 L13.9410245,38.0993521 C13.5573842,36.887851 13.243782,35.5468898 13.0051226,34.1144708 L17.2643052,34.1144708 L17.2643052,34.1144708 L17.2643052,34.1144708 Z M9.06876294,14.6589201 C9.04276839,14.6966307 9.01765668,14.735216 8.9920545,14.7732181 L7.2053951,14.7732181 C8.3626921,13.7822462 9.6600654,12.9481425 11.0631826,12.3025918 C10.3508338,12.9803132 9.68243052,13.7671814 9.06876294,14.6589201 L9.06876294,14.6589201 L9.06876294,14.6589201 Z M5.50417439,27.8941685 C5.54988556,29.5318575 5.74891553,31.1309611 6.09214169,32.6565875 L2.42828338,32.6565875 C1.8879891,31.1571058 1.56251771,29.5575162 1.48855586,27.8941685 L5.50417439,27.8941685 L5.50417439,27.8941685 L5.50417439,27.8941685 Z M8.0000436,34.0861879 C8.30844687,33.9993952 8.5346485,33.7188985 8.5346485,33.3855292 C8.5346485,32.982959 8.20525341,32.6565875 7.79895368,32.6565875 L7.60355313,32.6565875 C7.24286649,31.1571058 7.02549319,29.5575162 6.97615259,27.8941685 L7.01362398,27.8941685 C7.41992371,27.8941685 7.7493188,27.567797 7.7493188,27.1652268 C7.7493188,26.7626566 7.41992371,26.4362851 7.01362398,26.4362851 L6.97615259,26.4362851 C7.02549319,24.7729374 7.24286649,23.1733477 7.60355313,21.6738661 L7.79807084,21.6738661 C8.20437057,21.6738661 8.53376567,21.3474946 8.53376567,20.9449244 C8.53376567,20.6118467 8.3079564,20.3314471 7.9999455,20.24446 C8.46353134,18.7753024 9.06954768,17.4242333 9.792,16.2311015 L12.4043052,16.2311015 C12.0407738,17.4573758 11.7428665,18.7962959 11.5156839,20.2159827 L10.9373297,20.2159827 C10.53103,20.2159827 10.2016349,20.5423542 10.2016349,20.9449244 C10.2016349,21.3474946 10.53103,21.6738661 10.9373297,21.6738661 L11.3102779,21.6738661 C11.1245886,23.1983261 11.0169809,24.7979158 10.9922616,26.4362851 L10.1525886,26.4362851 C9.74628883,26.4362851 9.41689373,26.7626566 9.41689373,27.1652268 C9.41689373,27.567797 9.74628883,27.8941685 10.1525886,27.8941685 L10.9923597,27.8941685 C11.017079,29.5325378 11.1246866,31.1321274 11.310376,32.6565875 L10.9375259,32.6565875 C10.5312262,32.6565875 10.2018311,32.982959 10.2018311,33.3855292 C10.2018311,33.7880994 10.5312262,34.1144708 10.9375259,34.1144708 L11.5156839,34.1144708 C11.7428665,35.5341577 12.0406757,36.8730778 12.4043052,38.0993521 L9.792,38.0993521 C9.06954768,36.9062203 8.46353134,35.5553456 8.0000436,34.0861879 L8.0000436,34.0861879 L8.0000436,34.0861879 Z M12.8872153,39.5572354 C13.3453079,40.7958531 13.8678474,41.837365 14.4400218,42.6674838 C13.0875204,41.9815983 11.852436,40.9162743 10.7928392,39.5572354 L12.8872153,39.5572354 L12.8872153,39.5572354 L12.8872153,39.5572354 Z M21.5599782,42.6674838 C22.1321526,41.837365 22.6546921,40.7958531 23.1127847,39.5572354 L23.493188,39.5572354 C23.8994877,39.5572354 24.2288828,39.2308639 24.2288828,38.8282937 C24.2288828,38.4595464 23.9522616,38.1555292 23.5935368,38.106933 C23.9581471,36.8786177 24.2567411,35.5370734 24.4843161,34.1144708 L26.6321526,34.1144708 C27.0384523,34.1144708 27.3678474,33.7880994 27.3678474,33.3855292 C27.3678474,32.982959 27.0384523,32.6565875 26.6321526,32.6565875 L24.689624,32.6565875 C24.8753134,31.1321274 24.982921,29.5325378 25.0076403,27.8941685 L26.6321526,27.8941685 C27.0384523,27.8941685 27.3678474,27.567797 27.3678474,27.1652268 C27.3678474,26.7626566 27.0384523,26.4362851 26.6321526,26.4362851 L25.0077384,26.4362851 C24.9830191,24.7979158 24.8754114,23.1983261 24.6897221,21.6738661 L25.8473134,21.6738661 C26.2536131,21.6738661 26.5830082,21.3474946 26.5830082,20.9449244 C26.5830082,20.5423542 26.2536131,20.2159827 25.8473134,20.2159827 L24.4843161,20.2159827 C24.2566431,18.7933801 23.958049,17.4518359 23.5935368,16.2235205 C23.9522616,16.1749244 24.2288828,15.8709071 24.2288828,15.5021598 C24.2288828,15.0995896 23.8994877,14.7732181 23.493188,14.7732181 L23.1127847,14.7732181 C22.6546921,13.5346004 22.1321526,12.4930886 21.5599782,11.6629698 C25.9035204,13.8657343 29.0354223,19.9827214 29.0354223,27.1652268 C29.0354223,34.3477322 25.9035204,40.4647192 21.5599782,42.6674838 L21.5599782,42.6674838 L21.5599782,42.6674838 Z M30.4958256,26.4362851 C30.4501144,24.7985961 30.2510845,23.1994924 29.9078583,21.6738661 L33.5717166,21.6738661 C34.1120109,23.1733477 34.4374823,24.7729374 34.5114441,26.4362851 L30.4958256,26.4362851 L30.4958256,26.4362851 L30.4958256,26.4362851 Z M16.3814714,7.72678186 C16.3814714,7.10514039 16.741079,6.56611231 17.2643052,6.30009719 L17.2643052,7.72678186 C17.2643052,8.12935205 17.5937003,8.45572354 18,8.45572354 C18.4062997,8.45572354 18.7356948,8.12935205 18.7356948,7.72678186 L18.7356948,6.30009719 C19.258921,6.56611231 19.6185286,7.1050432 19.6185286,7.72678186 C19.6185286,8.61103672 18.8924469,9.33045356 18,9.33045356 C17.1075531,9.33045356 16.3814714,8.61103672 16.3814714,7.72678186 L16.3814714,7.72678186 L16.3814714,7.72678186 Z M7.205297,39.5572354 L8.9919564,39.5572354 C9.01765668,39.5952376 9.04276839,39.6338229 9.06866485,39.6715335 C9.68233243,40.5633693 10.3508338,41.3501404 11.0629864,42.0278618 C9.6600654,41.382311 8.36259401,40.5482073 7.205297,39.5572354 L7.205297,39.5572354 L7.205297,39.5572354 Z M26.9313351,39.6715335 C26.9573297,39.6338229 26.9824414,39.5952376 27.0080436,39.5572354 L28.7946049,39.5572354 C27.637406,40.5482073 26.3400327,41.382311 24.9369155,42.0277646 C25.6491662,41.3500432 26.3176676,40.5632721 26.9313351,39.6715335 L26.9313351,39.6715335 L26.9313351,39.6715335 Z" id="disco-ball-copy" fill="#86428A"></path>
    </g>
</svg>