<?xml version="1.0" encoding="UTF-8" standalone="no"?>
<svg width="63px" height="49px" viewBox="0 0 63 49" version="1.1" xmlns="http://www.w3.org/2000/svg" xmlns:xlink="http://www.w3.org/1999/xlink">
    <!-- Generator: Sketch 39.1 (31720) - http://www.bohemiancoding.com/sketch -->
    <title>tent copy</title>
    <desc>Created with Sketch.</desc>
    <defs></defs>
    <g id="Page-1" stroke="none" stroke-width="1" fill="none" fill-rule="evenodd">
        <path d="M61.4223165,41.2325735 C60.7940173,41.2325735 60.2848662,41.7418669 60.2848662,42.3700239 L60.2848662,43.920653 L58.5816765,43.920653 L48.2560448,30.0301099 C48.7566651,30.1796846 49.3623574,30.2846144 50.1366767,30.2846144 C51.7738942,30.2846144 52.6639491,29.8185441 53.379121,29.4438964 C53.9990314,29.1192965 54.4887038,28.8628015 55.5661536,28.8628015 C56.6437455,28.8628015 57.1332757,29.1192965 57.753044,29.4438964 C58.4682158,29.8185441 59.3584129,30.2846144 60.9956304,30.2846144 C61.6237873,30.2846144 62.1330807,29.775321 62.1330807,29.1471641 C62.1330807,28.5190071 61.6237873,28.0097138 60.9956304,28.0097138 C59.9180384,28.0097138 59.4283661,27.7532187 58.8085978,27.4286188 C58.093426,27.0539711 57.2033711,26.5879009 55.5661536,26.5879009 C53.928936,26.5879009 53.0388812,27.0539711 52.3237093,27.4286188 C51.7037989,27.7532187 51.2141265,28.0097138 50.1366767,28.0097138 C49.0593691,28.0097138 48.5698389,27.7532187 47.9500707,27.4286188 C47.4003978,27.1407017 46.7772172,26.8143957 45.8120907,26.6666693 C45.7916166,26.6635413 45.7714268,26.6625461 45.7509527,26.6604133 L32.1925451,8.42097115 C32.1788957,8.40262976 32.1625448,8.38727418 32.1479001,8.36992807 C32.125862,8.34376671 32.104677,8.31689445 32.080364,8.29272363 C32.0597477,8.27224952 32.0369987,8.25476122 32.0149606,8.23613548 C31.9919273,8.21651446 31.9700314,8.19604035 31.945434,8.17826769 C31.9202679,8.16006849 31.8932535,8.14528163 31.8668077,8.12921515 C31.8426369,8.11457047 31.8196036,8.09893053 31.7942953,8.08599204 C31.7634419,8.07035209 31.7310246,8.05855105 31.6990338,8.04575473 C31.6781332,8.03750822 31.6586543,8.02670244 31.6370428,8.01959337 C31.6344835,8.01874029 31.6319243,8.0185981 31.6295072,8.01774502 C31.5950993,8.00665488 31.559554,7.99983017 31.5241508,7.9920102 C31.5014018,7.98703386 31.478795,7.97964043 31.4559038,7.9760859 C31.4243396,7.97110955 31.3922066,7.97054083 31.3602158,7.96826593 C31.3333435,7.96641757 31.3064713,7.96229431 31.279599,7.96229431 C31.2527268,7.96229431 31.2258545,7.96641757 31.1989822,7.96826593 C31.1669914,7.97054083 31.1348585,7.97110955 31.1032942,7.9760859 C31.0802609,7.97964043 31.057654,7.98703386 31.0347628,7.9920102 C30.9995019,7.99983017 30.9640987,8.00665488 30.9298331,8.01774502 C30.9272738,8.0185981 30.9247145,8.01874029 30.9221553,8.01959337 C30.9004015,8.02684462 30.8807805,8.03750822 30.8597377,8.04589691 C30.8278891,8.05855105 30.7957561,8.07035209 30.7650449,8.08584985 C30.7395945,8.09878835 30.7164189,8.11457047 30.6922481,8.12921515 C30.6659446,8.14513945 30.6390723,8.15992631 30.6139062,8.17812551 C30.5893089,8.19589817 30.5672708,8.21651446 30.5442374,8.23613548 C30.5223415,8.25476122 30.4995925,8.27224952 30.4789762,8.29272363 C30.4546632,8.31689445 30.4334782,8.34376671 30.4114401,8.36992807 C30.3967954,8.38727418 30.3804446,8.40248758 30.3667951,8.42097115 L16.0106083,27.7338821 C15.798616,27.6461562 15.5975717,27.5433591 15.3786125,27.4286188 C14.6634406,27.0539711 13.7735279,26.5879009 12.1364526,26.5879009 C10.4993772,26.5879009 9.60946454,27.0539711 8.89443484,27.4286188 C8.2746666,27.7532187 7.78513643,28.0097138 6.70782881,28.0097138 C5.63066337,28.0097138 5.14127538,27.7532187 4.52150714,27.4286188 C3.80647745,27.0541133 2.91656476,26.5879009 1.27963159,26.5879009 C0.651332481,26.5879009 0.142181288,27.0971942 0.142181288,27.7253512 C0.142181288,28.3535081 0.651332481,28.8628015 1.27963159,28.8628015 C2.35679703,28.8628015 2.84632721,29.1192965 3.46595326,29.4438964 C4.18098296,29.8184019 5.07089564,30.2846144 6.70797099,30.2846144 C8.34504634,30.2846144 9.23495902,29.8184019 9.9501309,29.4438964 C10.5698991,29.1192965 11.0594293,28.8628015 12.1367369,28.8628015 C13.2140446,28.8628015 13.7035747,29.1192965 14.3232008,29.4438964 C14.4198841,29.4945129 14.5196953,29.5468357 14.6240564,29.5993006 L3.97809026,43.920653 L2.27490061,43.920653 L2.27490061,42.3700239 C2.27490061,41.7418669 1.76560724,41.2325735 1.1374503,41.2325735 C0.509151193,41.2325735 0,41.7418669 0,42.3700239 L0,47.6307315 C0,48.2588884 0.509151193,48.7681818 1.1374503,48.7681818 C1.76560724,48.7681818 2.27490061,48.2588884 2.27490061,47.6307315 L2.27490061,46.1955536 L4.54980122,46.1955536 L31.2798834,46.1955536 L58.003283,46.1955536 C58.0055579,46.1955536 58.0076906,46.195838 58.0099655,46.195838 C58.011103,46.195838 58.0123826,46.1955536 58.0135201,46.1955536 L60.2848662,46.1955536 L60.2848662,47.6307315 C60.2848662,48.2588884 60.7940173,48.7681818 61.4223165,48.7681818 C62.0504734,48.7681818 62.5597668,48.2588884 62.5597668,47.6307315 L62.5597668,42.3700239 C62.5597668,41.7418669 62.0504734,41.2325735 61.4223165,41.2325735 L61.4223165,41.2325735 L61.4223165,41.2325735 L61.4223165,41.2325735 Z M30.1424331,43.920653 L6.81261642,43.920653 L8.63452745,41.4697319 C8.73689797,41.5000166 8.84509793,41.5169361 8.95742115,41.5169361 L30.1424331,41.5169361 L30.1424331,43.920653 L30.1424331,43.920653 L30.1424331,43.920653 L30.1424331,43.920653 Z M30.1424331,39.2420355 L10.2905129,39.2420355 L30.1424331,12.5364085 L30.1424331,39.2420355 L30.1424331,39.2420355 L30.1424331,39.2420355 L30.1424331,39.2420355 Z M32.4173337,43.920653 L32.4173337,29.3028526 L39.7362577,39.6159723 C39.8723252,39.8077749 40.0645543,39.9526576 40.2864993,40.0307151 L51.3473504,43.920653 L32.4173337,43.920653 L32.4173337,43.920653 L32.4173337,43.920653 L32.4173337,43.920653 Z M49.3201296,40.7962192 C49.3039209,40.7689204 49.2872857,40.7416216 49.2685178,40.715318 L44.0078101,33.321891 C43.6433995,32.8100384 42.9333461,32.6901796 42.4214935,33.054448 C41.9096408,33.4187165 41.7899242,34.128912 42.1541927,34.6406225 L45.6042216,39.4892888 L41.3822904,38.0044896 L32.4173337,25.3722509 L32.4173337,12.5364085 L54.8774274,42.7507853 L49.3201296,40.7962192 L49.3201296,40.7962192 L49.3201296,40.7962192 Z M40.3439405,9.66832759 L56.5682473,9.66832759 C57.1564513,9.66832759 57.6475454,9.22002999 57.7010056,8.63424308 C57.7173565,8.45509466 57.725603,8.27679932 57.725603,8.10433342 C57.725603,4.96838293 55.1743019,2.4170819 52.0383514,2.4170819 C51.3767819,2.4170819 50.7260182,2.53111129 50.1129324,2.75135011 C48.9631124,1.05015099 47.0334279,0 44.929287,0 C41.4796846,0 38.6733104,2.80637426 38.6733104,6.25597668 C38.6733104,7.23233558 38.8928383,8.168315 39.3256381,9.03775358 C39.5180094,9.42406014 39.9124203,9.66832759 40.3439405,9.66832759 L40.3439405,9.66832759 L40.3439405,9.66832759 Z M44.929287,2.27490061 C46.5235658,2.27490061 47.9605921,3.22239671 48.590313,4.68885452 C48.721262,4.99383338 48.9788945,5.22629979 49.2956744,5.32554233 C49.6124543,5.42478487 49.9566752,5.38070867 50.238052,5.20468823 C50.7749285,4.86942475 51.3973982,4.69212469 52.0383514,4.69212469 C53.6761377,4.69212469 55.0483293,5.85203964 55.3761994,7.39356916 L41.1127147,7.39356916 C41.0033773,7.02773671 40.948211,6.6471174 40.948211,6.25611886 C40.948211,4.06083977 42.734008,2.27490061 44.929287,2.27490061 L44.929287,2.27490061 L44.929287,2.27490061 Z M5.36734363,10.8057779 L21.5916504,10.8057779 C22.1798544,10.8057779 22.6709486,10.3574803 22.7244087,9.77169339 C22.7407596,9.59254496 22.7490061,9.41424963 22.7490061,9.24178373 C22.7490061,6.10583324 20.1977051,3.5545322 17.0617546,3.5545322 C16.400185,3.5545322 15.7494213,3.6685616 15.1363356,3.88880041 C13.9865155,2.1876013 12.056831,1.1374503 9.95269017,1.1374503 C6.50308776,1.1374503 3.69671349,3.94382457 3.69671349,7.39342698 C3.69671349,8.36978589 3.9162414,9.30576531 4.34904124,10.1752039 C4.54141252,10.5615104 4.93582342,10.8057779 5.36734363,10.8057779 L5.36734363,10.8057779 L5.36734363,10.8057779 Z M9.95269017,3.41235091 C11.546969,3.41235091 12.9839952,4.35984702 13.6137162,5.82630482 C13.7446651,6.13128369 14.0022976,6.36375009 14.3190775,6.46299263 C14.6357153,6.56237735 14.9800783,6.51801679 15.2614551,6.34213854 C15.7983316,6.00687506 16.4208013,5.82957499 17.0617546,5.82957499 C18.6995408,5.82957499 20.0717324,6.98948994 20.3996025,8.53101947 L6.13611785,8.53101947 C6.02678044,8.16518701 5.9716141,7.7845677 5.9716141,7.39356916 C5.9716141,5.19829007 7.75741108,3.41235091 9.95269017,3.41235091 L9.95269017,3.41235091 L9.95269017,3.41235091 Z" id="tent-copy" fill="#86428A"></path>
    </g>
</svg>