<?xml version="1.0" encoding="UTF-8" standalone="no"?>
<svg width="54px" height="51px" viewBox="0 0 54 51" version="1.1" xmlns="http://www.w3.org/2000/svg" xmlns:xlink="http://www.w3.org/1999/xlink">
    <!-- Generator: Sketch 39.1 (31720) - http://www.bohemiancoding.com/sketch -->
    <title>paw</title>
    <desc>Created with Sketch.</desc>
    <defs></defs>
    <g id="Page-1" stroke="none" stroke-width="1" fill="none" fill-rule="evenodd" stroke-linecap="round" stroke-linejoin="round">
        <g id="paw" transform="translate(1.000000, 1.000000)" stroke="#FFFFFF" stroke-width="2">
            <path d="M24.0977888,7.95379526 C24.4250969,12.5788457 22.0037023,16.5215824 18.6886366,16.7599603 C15.3735708,16.9983383 12.4209432,13.4425339 12.093635,8.81748348 C11.7663269,4.19243307 14.1877215,0.249696351 17.5027873,0.0113184027 C20.817853,-0.227059546 23.7704807,3.32874485 24.0977888,7.95379526 L24.0977888,7.95379526 Z" id="Stroke-79"></path>
            <path d="M39.6647014,10.1922454 C39.0436477,14.6398061 36.0187604,17.8690724 32.9075687,17.405002 C29.7972231,16.9418054 27.7792214,12.9609371 28.4002752,8.51337647 C29.0213289,4.06668978 32.0462162,0.837423396 35.1565618,1.30061993 C38.2677535,1.76381646 40.2857552,5.74468476 39.6647014,10.1922454 L39.6647014,10.1922454 Z" id="Stroke-81"></path>
            <path d="M51.7287014,21.4999377 C51.1076477,25.9474984 48.0827604,29.1767648 44.9715687,28.7126943 C41.8612231,28.2494977 39.8432214,24.2686294 40.4642752,19.8210688 C41.0853289,15.3743821 44.1102162,12.1451157 47.2205618,12.6083122 C50.3317535,13.0715088 52.3497552,17.0523771 51.7287014,21.4999377 L51.7287014,21.4999377 Z" id="Stroke-83"></path>
            <path d="M11.5331151,18.1714802 C12.8967512,22.3686397 11.5399935,26.5683742 8.50147525,27.552003 C5.46295701,28.5364901 1.89480458,25.9306463 0.530308702,21.7334868 C-0.833327383,17.5363273 0.523430336,13.3365928 3.56194857,12.352964 C6.60046681,11.3693352 10.169479,13.9743207 11.5331151,18.1714802 L11.5331151,18.1714802 Z" id="Stroke-85"></path>
            <path d="M26.5142382,19.2649573 C32.652826,19.2649573 43.4604765,32.8779189 43.4604765,40.3827331 C43.4604765,49.5505755 38.099923,48.5854484 36.8891714,48.5854484 C35.6792766,48.5854484 31.010214,45.7929795 26.5142382,45.7929795 C22.0182625,45.7929795 17.8684606,48.759275 15.1016404,48.759275 C11.8095614,48.759275 9.568,44.3963126 9.568,40.0333502 C9.568,35.6703878 19.7492814,19.2649573 26.5142382,19.2649573 L26.5142382,19.2649573 Z" id="Stroke-87"></path>
        </g>
    </g>
</svg>
