<?xml version="1.0" encoding="UTF-8" standalone="no"?>
<svg width="61px" height="60px" viewBox="0 0 61 60" version="1.1" xmlns="http://www.w3.org/2000/svg" xmlns:xlink="http://www.w3.org/1999/xlink" xmlns:sketch="http://www.bohemiancoding.com/sketch/ns">
    <!-- Generator: Sketch 3.3.3 (12081) - http://www.bohemiancoding.com/sketch -->
    <title>Share Icon Solid</title>
    <desc>Created with Sketch.</desc>
    <defs></defs>
    <g id="Page-1" stroke="none" stroke-width="1" fill="none" fill-rule="evenodd" sketch:type="MSPage">
        <path d="M30.155642,60 C46.8101441,60 60.311284,46.5685433 60.311284,30 C60.311284,13.4314567 46.8101441,0 30.155642,0 C13.50114,0 0,13.4314567 0,30 C0,46.5685433 13.50114,60 30.155642,60 Z M34.8087747,19.9654151 L23.7230214,27.8429412 C23.9823489,28.5123453 24.1245136,29.2396562 24.1245136,30 C24.1245136,30.8426481 23.9499056,31.6447247 23.6347183,32.3723795 L34.9822794,39.8983748 C35.737994,39.334233 36.6770386,39 37.6945525,39 C40.1927278,39 42.2178988,41.0147185 42.2178988,43.5 C42.2178988,45.9852815 40.1927278,48 37.6945525,48 C35.1963772,48 33.1712062,45.9852815 33.1712062,43.5 C33.1712062,43.118387 33.2189544,42.7478687 33.3088278,42.3940498 L21.7807604,34.748338 C20.7612667,35.5330377 19.4821414,36 18.0933852,36 C14.7624848,36 12.0622568,33.3137087 12.0622568,30 C12.0622568,26.6862913 14.7624848,24 18.0933852,24 C19.5690276,24 20.9208921,24.5272202 21.9690129,25.4026271 L33.2578183,17.3808124 C33.2010001,17.0959673 33.1712062,16.801445 33.1712062,16.5 C33.1712062,14.0147185 35.1963772,12 37.6945525,12 C40.1927278,12 42.2178988,14.0147185 42.2178988,16.5 C42.2178988,18.9852815 40.1927278,21 37.6945525,21 C36.5976364,21 35.5919143,20.6115677 34.8087747,19.9654151 Z" id="Share-Icon-Solid" fill="#B9E937" sketch:type="MSShapeGroup"></path>
    </g>
</svg>