<?xml version="1.0" encoding="UTF-8" standalone="no"?>
<svg width="33px" height="33px" viewBox="0 0 33 33" version="1.1" xmlns="http://www.w3.org/2000/svg" xmlns:xlink="http://www.w3.org/1999/xlink">
    <!-- Generator: Sketch 39.1 (31720) - http://www.bohemiancoding.com/sketch -->
    <title>Group 19</title>
    <desc>Created with Sketch.</desc>
    <defs></defs>
    <g id="Page-1" stroke="none" stroke-width="1" fill="none" fill-rule="evenodd">
        <g id="Group-19" fill="#FFFFFF">
            <path d="M18.071,20.481 L13.649,19.286 L12.421,14.818 L15.612,11.627 L20.057,12.839 L21.269,17.283 L18.071,20.481 L18.071,20.481 Z M31.338,14.284 L31.338,14.284 L27.73,17.893 L23.172,16.661 L21.989,12.321 L25.271,9.038 L30.267,10.401 L30.793,8.471 L25.788,7.106 L24.465,2.257 L22.536,2.783 L23.857,7.625 L20.575,10.907 L16.129,9.694 L14.959,5.405 L18.652,1.712 L17.238,0.298 L13.545,3.991 L8.549,2.628 L8.023,4.558 L13.027,5.922 L14.197,10.213 L10.888,13.523 L6.62,12.37 L5.237,7.341 L3.308,7.871 L4.637,12.702 L0.936,16.404 L2.35,17.818 L5.917,14.251 L10.534,15.499 L11.693,19.714 L8.354,23.053 L3.438,21.725 L2.917,23.656 L7.903,25.003 L9.269,29.968 L11.197,29.438 L9.817,24.419 L13.042,21.193 L17.437,22.381 L18.665,26.884 L15.058,30.491 L16.472,31.905 L20.155,28.222 L25.163,29.575 L25.685,27.645 L20.568,26.262 L19.4,21.98 L22.759,18.621 L27.096,19.793 L28.477,24.856 L30.406,24.329 L29.06,19.392 L32.753,15.699 L31.338,14.284 L31.338,14.284 Z" id="Fill-23"></path>
            <path d="M2.843,16.051 C2.843,14.844 2.999,13.627 3.32,12.429 C4.615,7.597 8.388,3.824 13.22,2.529 C14.417,2.208 15.635,2.052 16.842,2.052 C20.507,2.052 24.083,3.492 26.743,6.153 C29.403,8.813 30.843,12.388 30.843,16.053 C30.843,17.261 30.687,18.478 30.366,19.676 C29.072,24.507 25.298,28.281 20.466,29.575 C19.269,29.896 18.052,30.052 16.844,30.052 C13.179,30.052 9.604,28.612 6.944,25.952 C4.283,23.292 2.843,19.716 2.843,16.051 L2.843,16.051 Z M20.984,31.507 C26.506,30.027 30.818,25.715 32.298,20.193 C32.664,18.825 32.843,17.433 32.843,16.053 C32.844,11.865 31.197,7.779 28.157,4.738 C25.117,1.698 21.03,0.052 16.842,0.052 C15.462,0.052 14.07,0.231 12.702,0.597 C7.18,2.077 2.868,6.39 1.388,11.911 C1.022,13.279 0.843,14.671 0.843,16.051 C0.843,20.239 2.489,24.326 5.529,27.366 C8.569,30.406 12.656,32.053 16.844,32.052 C18.224,32.052 19.616,31.874 20.984,31.507 L20.984,31.507 Z" id="Fill-112"></path>
        </g>
    </g>
</svg>
