<?xml version="1.0" encoding="UTF-8" standalone="no"?>
<svg width="58px" height="33px" viewBox="0 0 58 33" version="1.1" xmlns="http://www.w3.org/2000/svg" xmlns:xlink="http://www.w3.org/1999/xlink">
    <!-- Generator: Sketch 39.1 (31720) - http://www.bohemiancoding.com/sketch -->
    <title>eye-mask copy</title>
    <desc>Created with Sketch.</desc>
    <defs></defs>
    <g id="Page-1" stroke="none" stroke-width="1" fill="none" fill-rule="evenodd">
        <path d="M57.6087819,0.176646162 C57.3632527,0.000140809418 57.0475724,-0.0473364997 56.7609546,0.0489960879 C56.7326436,0.0585166037 53.8248769,1.0021751 45.0345572,1.0021751 C38.6083326,1.0021751 33.4755205,3.14942722 29.7786782,7.38442825 C29.5863888,7.60465281 29.302527,7.73092492 29,7.73092492 C28.697473,7.73092492 28.4136112,7.60465281 28.2213218,7.38442825 C24.5243542,3.14942722 19.3915421,1.0021751 12.9654428,1.0021751 C4.27220734,1.0021751 1.26372354,0.0570133644 1.23904536,0.0489960879 C0.952302376,-0.0473364997 0.6367473,1.55394726e-05 0.391218143,0.176646162 C0.145563715,0.353151514 0,0.637013209 0,0.939540126 C0,5.26273119 0.317809935,11.6161723 3.06610799,16.8535834 C4.40749892,19.4099671 6.23957235,21.5337938 8.51121814,23.166437 C11.0202505,24.9695726 14.1464881,26.2314167 17.8031188,26.9170191 C23.8708207,28.0547208 26.49673,30.2554632 27.5219395,31.4660719 C27.8927387,31.9038904 28.4313996,32.1550566 29,32.1550566 C29.5686004,32.1550566 30.1073866,31.9038904 30.4781857,31.4660719 C31.5033952,30.2554632 34.1293045,28.0547208 40.1970065,26.9170191 C43.8536371,26.2314167 46.9798747,24.9695726 49.4889071,23.166437 C49.699486,23.0151109 49.905054,22.8580224 50.1081166,22.6983032 L51.9871663,20.9868652 C53.1395248,19.7740016 54.1262765,18.3929005 54.9340173,16.8535834 C56.2501037,14.345178 58,9.96636708 58,0.939540126 C58,0.637013209 57.8544363,0.353151514 57.6087819,0.176646162 Z M39.850635,25.0700391 C33.5445443,26.2524621 30.4934687,28.5403923 29.0443456,30.2515798 C29.015784,30.2851521 28.9843413,30.2851521 28.955905,30.2515798 C27.5067819,28.5403923 24.4557063,26.2524621 18.1494903,25.0700391 C11.6939525,23.8595556 7.30436717,20.8863987 4.73006911,15.9804519 C3.56368035,13.7579125 2.0312527,9.93266947 1.88957235,2.12522015 C3.52760259,2.43651597 6.92479914,2.88122427 12.9654428,2.88122427 C18.824946,2.88122427 23.4814816,4.8121352 26.8057711,8.62009098 C27.3548294,9.24907138 28.1545529,9.60984882 28.9998747,9.60997409 C29.8451965,9.60997409 30.6450454,9.24919665 31.1941037,8.62009098 C34.5185184,4.8121352 39.175054,2.88122427 45.0345572,2.88122427 C51.0769546,2.88122427 54.4744017,2.43614016 56.1119309,2.12484434 C56.0474168,6.16718019 55.5901814,11.5586733 53.2699309,15.9804519 C50.6956328,20.8863987 46.3061728,23.8596809 39.850635,25.0700391 L39.850635,25.0700391 L39.850635,25.0700391 Z M48.9458618,10.1758184 C49.0250324,9.89283362 48.9671577,9.58892874 48.7895248,9.35479921 C48.611892,9.12066968 48.3349201,8.98312328 48.0410367,8.98312328 L45.3109028,8.98312328 C41.1741123,8.98312328 38.1597408,10.1726867 36.0955421,12.6195845 C34.9552095,13.9712472 34.1080086,15.9131819 33.8291577,17.8142786 C33.7891965,18.086866 33.8708726,18.3632115 34.052514,18.5702827 C34.2310238,18.7738464 34.4884536,18.8902221 34.7587862,18.8902221 C34.7635464,18.8902221 34.7683067,18.8902221 34.773067,18.8900969 C35.4696933,18.8794489 36.1550454,18.878071 36.7326652,18.878071 L38.2959093,18.8794489 C40.9988596,18.8794489 43.2800259,18.1302094 45.0758963,16.6523998 C46.8498445,15.1925039 48.1520259,13.0134332 48.9458618,10.1758184 L48.9458618,10.1758184 L48.9458618,10.1758184 Z M38.2965356,17.0003998 L36.7332916,16.9990218 C36.4791188,16.9990218 36.2044017,16.9992723 35.9169071,17.000525 C36.3895508,15.2889618 37.2426393,14.1738087 37.5315119,13.8313207 C39.2168942,11.8335156 41.7615032,10.8622977 45.3107775,10.8622977 L46.7551404,10.8622977 C45.257162,14.9894413 42.479676,17.0003998 38.2965356,17.0003998 L38.2965356,17.0003998 Z M21.2667084,18.878071 C21.8452052,18.878071 22.5305572,18.8794489 23.2271836,18.8900969 C23.2319438,18.8900969 23.2367041,18.8902221 23.2414644,18.8902221 C23.5116717,18.8902221 23.7691015,18.7738464 23.9477365,18.5702827 C24.129378,18.3632115 24.211054,18.086866 24.1710929,17.8142786 C23.8922419,15.9129314 23.0449158,13.9709967 21.9047084,12.6195845 C19.8405097,10.1725614 16.8261382,8.98312328 12.6893477,8.98312328 L9.95896328,8.98312328 C9.66507991,8.98312328 9.38810799,9.12066968 9.21047516,9.35479921 C9.03284233,9.58892874 8.9749676,9.89270835 9.05413823,10.1758184 C9.84797408,13.0134332 11.1500302,15.1925039 12.9243542,16.6525251 C14.7202246,18.1302094 17.0013909,18.8795742 19.7050929,18.8795742 L21.2667084,18.878071 L21.2667084,18.878071 L21.2667084,18.878071 Z M11.2447343,10.8621725 L12.6892225,10.8621725 C16.2384968,10.8621725 18.7831058,11.8333903 20.4683629,13.8313207 C20.7573607,14.1738087 21.610324,15.2888365 22.0829676,17.000525 C21.7953477,16.9993976 21.5203801,16.9990218 21.2658315,16.9990218 L19.7043413,17.0003998 C15.520324,17.0003998 12.742838,14.9894413 11.2447343,10.8621725 L11.2447343,10.8621725 L11.2447343,10.8621725 Z M43.0283585,6.98206119 C43.0580475,6.98206119 43.087987,6.98068322 43.1181771,6.97780201 C43.733879,6.91942621 44.3785184,6.88986251 45.0345572,6.88986251 C45.5534255,6.88986251 45.9740821,6.46920603 45.9740821,5.95033792 C45.9740821,5.43146981 45.5534255,5.01081333 45.0345572,5.01081333 C44.3195162,5.01081333 43.6151231,5.04325825 42.9407948,5.10727119 C42.4241814,5.15625174 42.0452397,5.61473974 42.0942203,6.13122772 C42.1403197,6.61765092 42.5494514,6.98206119 43.0283585,6.98206119 L43.0283585,6.98206119 L43.0283585,6.98206119 Z M18.7813521,7.83339573 C19.4824881,8.09057493 20.1539352,8.40475195 20.7771533,8.76703263 C20.9257235,8.85334362 21.0881987,8.89455743 21.2485443,8.89455743 C21.5722419,8.89455743 21.8872959,8.72707152 22.0616717,8.42705 C22.3224838,7.97845833 22.1702808,7.40346928 21.721689,7.14265725 C21.0040173,6.72538307 20.2324795,6.36435509 19.4287473,6.06946964 C18.9415724,5.89070943 18.401784,6.14062297 18.2230238,6.62792305 C18.0442635,7.11484733 18.2943024,7.65463552 18.7813521,7.83339573 L18.7813521,7.83339573 Z M29,13.6186123 C31.003067,13.6186123 32.9035378,12.757632 34.2141123,11.256397 C35.59346,9.67624189 37.3171749,8.51022924 39.3374039,7.79055341 C39.8262073,7.61642819 40.081257,7.07902012 39.9071317,6.5902168 C39.7330065,6.10153874 39.1957235,5.8462386 38.7067948,6.02048909 C36.3797797,6.84940031 34.3919957,8.19517533 32.7984363,10.0207342 C31.8447559,11.1130882 30.4602721,11.7396884 28.9998747,11.7396884 C27.5394773,11.7396884 26.1549935,11.1132134 25.2013132,10.0207342 C24.860203,9.62989201 24.2665486,9.58955509 23.8757063,9.93079042 C23.4847387,10.2720257 23.444527,10.8654295 23.7857624,11.256397 C25.0963369,12.757632 26.9968078,13.6186123 29,13.6186123 L29,13.6186123 Z M6.20123974,6.67377185 C8.21633261,6.81720594 10.4855983,6.88986251 12.9654428,6.88986251 C13.6214816,6.88986251 14.2662462,6.91942621 14.8818229,6.97780201 C15.3968078,7.02653202 15.8567991,6.64784097 15.9057797,6.13122772 C15.9547603,5.61461447 15.5756933,5.15625174 15.0592052,5.10727119 C14.3850022,5.04325825 13.6804838,5.01081333 12.9654428,5.01081333 C10.0707041,5.01081333 7.47485961,4.91059738 5.24931317,4.7129214 C5.21611663,4.70928858 5.18241901,4.7075348 5.14847084,4.7075348 C5.03560259,4.70978966 4.93338229,4.72594948 4.83479482,4.76089979 C4.6967473,4.80950453 4.57460907,4.88892568 4.47552052,4.99039433 C4.3816933,5.08622584 4.30803456,5.20235108 4.26180994,5.33250655 C4.22673434,5.431094 4.2076933,5.53682183 4.2076933,5.64618249 C4.2076933,5.6820097 4.20957235,5.71733582 4.21345572,5.75216087 C4.75261771,11.5843537 6.41695464,15.7904174 9.30154644,18.609868 C9.48431533,18.7885029 9.72132613,18.8775699 9.95821166,18.8775699 C10.2022376,18.8775699 10.4461382,18.7831163 10.6301598,18.5947103 C10.9929417,18.2236608 10.9860518,17.6288791 10.6150022,17.2662226 C8.20468251,14.9100202 6.79025918,11.5263537 6.20123974,6.67377185 L6.20123974,6.67377185 L6.20123974,6.67377185 Z M53.5178402,4.98362976 C53.321041,4.78620432 53.0466998,4.68623891 52.7691015,4.71129289 C51.6174946,4.81388898 50.3521425,4.89130581 49.0079957,4.94116324 C48.4895032,4.96032955 48.0847559,5.39639422 48.1040475,5.91488652 C48.1232138,6.43337883 48.5575248,6.84125777 49.0777711,6.81883445 C50.0255637,6.78363359 50.9362765,6.73502885 51.7980086,6.67377185 C51.2782635,10.919045 50.0974687,14.102029 48.2016328,16.3808146 C46.1817797,18.8084209 43.2084968,20.3620187 39.1116674,21.130174 C38.6016933,21.225755 38.2658445,21.7168132 38.3614255,22.2267871 C38.446108,22.67826 38.8405832,22.9933139 39.2837883,22.9933139 C39.341162,22.9933139 39.3994125,22.9880526 39.4580389,22.9770288 C44.0024579,22.1249427 47.3348898,20.3603902 49.646121,17.5826545 C51.9553477,14.8071736 53.3101425,10.9310709 53.7880475,5.73311983 C53.8137279,5.45552164 53.7147646,5.18092992 53.5178402,4.98362976 L53.5178402,4.98362976 L53.5178402,4.98362976 Z M34.7184492,22.2444502 C32.5344924,22.9643766 30.6143542,23.8854865 29.0001253,24.9867345 C26.372838,23.1927437 22.9752657,21.8964503 18.8882073,21.130174 C17.1618618,20.8064765 15.6779136,20.3598891 14.3511793,19.7647316 C13.877784,19.5523991 13.3218359,19.76398 13.109378,20.2373751 C12.8969201,20.7107702 13.1086263,21.2667183 13.5820216,21.4791761 C15.045676,22.1357159 16.6680475,22.6257719 18.5418359,22.9771541 C22.6430497,23.746061 25.9733521,25.0640261 28.4401685,26.8943453 C28.6064017,27.0176109 28.8032009,27.079369 29,27.079369 C29.1967991,27.079369 29.3935983,27.0177362 29.5598315,26.8943453 C31.1219482,25.7353477 33.0554903,24.7713955 35.3068423,24.0292964 C35.7996544,23.8668212 36.0674816,23.3356767 35.9050065,22.8428647 C35.7425313,22.3500527 35.2115119,22.0821003 34.7184492,22.2444502 L34.7184492,22.2444502 Z" id="eye-mask-copy" fill="#FFFFFF"></path>
    </g>
</svg>
